<svg width="306" height="326" viewBox="0 0 306 326" fill="none" xmlns="http://www.w3.org/2000/svg">
<path d="M47.0514 285.389L46.6055 285.836L65.7374 301.126L66.1834 300.545L47.0514 285.389Z" fill="white"/>
<path d="M89.5074 302.244L70.42 302.199V302.825H89.5074V302.244Z" fill="white"/>
<path d="M47.0514 285.389L46.6055 285.836L65.7374 301.126L66.1834 300.545L47.0514 285.389Z" stroke="white"/>
<path d="M89.5074 302.244L70.42 302.199V302.825H89.5074V302.244Z" stroke="white"/>
<path d="M59.9847 292.855L59.5388 292.497L59.4496 292.408L59.5834 292.274L60.2077 291.826L60.9213 291.379L61.9916 290.754L63.0619 290.306L63.9538 290.038L64.5336 289.859L65.2917 289.725L66.362 289.546H67.7891H69.0378L70.1081 289.725L71.3123 289.993L72.1596 290.306L72.9623 290.619L73.8543 291.066L74.88 291.692L75.8165 292.408L76.5746 292.989L77.0206 293.481L77.4666 294.017L78.0017 294.777L77.4666 295.135L77.1544 294.777L76.5746 294.151L75.9503 293.481L75.2367 292.855L74.434 292.274L73.3637 291.648L72.0704 291.111L70.6433 290.633L69.2162 290.32L68.1459 290.306H66.585L65.3363 290.441L63.7308 290.888L62.2146 291.469L61.0996 292.139L59.9847 292.855Z" fill="white"/>
<path d="M56.8184 296.789L56.2832 296.342L55.971 296.968L55.6589 297.683L55.2129 298.89L54.9007 300.232L54.7223 301.26L54.6777 302.333L54.7223 303.406L54.7669 304.076L54.8561 304.747L55.0791 305.507L55.2129 306.088L55.3467 306.625L55.6589 307.519L55.971 308.1L56.417 309.039L56.863 309.799L57.1751 310.246L57.8887 311.14L59.2712 312.482L60.4307 313.376L61.501 314.002L63.1511 314.762L65.5593 315.343L67.6107 315.477L69.796 315.343L71.0001 315.164L72.0258 314.762L73.0961 314.315L74.3002 313.689L75.0138 313.197L75.7719 312.616L76.5746 311.9L77.0206 311.453L77.6004 310.827L78.0463 310.201L77.6004 309.844L77.1544 310.38L76.4409 311.14L75.6381 311.9L74.6124 312.616L73.4083 313.376L71.7582 314.136L70.8217 314.449L70.1081 314.628L69.1716 314.762L67.6999 314.896L66.139 314.762L65.1579 314.628L63.597 314.136L61.8132 313.376L60.9213 312.795L59.8509 312.035L58.959 311.14L58.2009 310.38L57.3089 309.039L56.6846 307.966L56.1048 306.625L55.6589 305.105L55.4805 304.211L55.3913 303.406L55.3467 302.556V301.707L55.4805 300.858L55.6589 299.963L55.971 298.89L56.3724 297.683L56.8184 296.789Z" fill="white"/>
<path d="M59.9847 292.855L59.5388 292.497L59.4496 292.408L59.5834 292.274L60.2077 291.826L60.9213 291.379L61.9916 290.754L63.0619 290.306L63.9538 290.038L64.5336 289.859L65.2917 289.725L66.362 289.546H67.7891H69.0378L70.1081 289.725L71.3123 289.993L72.1596 290.306L72.9623 290.619L73.8543 291.066L74.88 291.692L75.8165 292.408L76.5746 292.989L77.0206 293.481L77.4666 294.017L78.0017 294.777L77.4666 295.135L77.1544 294.777L76.5746 294.151L75.9503 293.481L75.2367 292.855L74.434 292.274L73.3637 291.648L72.0704 291.111L70.6433 290.633L69.2162 290.32L68.1459 290.306H66.585L65.3363 290.441L63.7308 290.888L62.2146 291.469L61.0996 292.139L59.9847 292.855Z" stroke="white"/>
<path d="M56.8184 296.789L56.2832 296.342L55.971 296.968L55.6589 297.683L55.2129 298.89L54.9007 300.232L54.7223 301.26L54.6777 302.333L54.7223 303.406L54.7669 304.076L54.8561 304.747L55.0791 305.507L55.2129 306.088L55.3467 306.625L55.6589 307.519L55.971 308.1L56.417 309.039L56.863 309.799L57.1751 310.246L57.8887 311.14L59.2712 312.482L60.4307 313.376L61.501 314.002L63.1511 314.762L65.5593 315.343L67.6107 315.477L69.796 315.343L71.0001 315.164L72.0258 314.762L73.0961 314.315L74.3002 313.689L75.0138 313.197L75.7719 312.616L76.5746 311.9L77.0206 311.453L77.6004 310.827L78.0463 310.201L77.6004 309.844L77.1544 310.38L76.4409 311.14L75.6381 311.9L74.6124 312.616L73.4083 313.376L71.7582 314.136L70.8217 314.449L70.1081 314.628L69.1716 314.762L67.6999 314.896L66.139 314.762L65.1579 314.628L63.597 314.136L61.8132 313.376L60.9213 312.795L59.8509 312.035L58.959 311.14L58.2009 310.38L57.3089 309.039L56.6846 307.966L56.1048 306.625L55.6589 305.105L55.4805 304.211L55.3913 303.406L55.3467 302.556V301.707L55.4805 300.858L55.6589 299.963L55.971 298.89L56.3724 297.683L56.8184 296.789Z" stroke="white"/>
<path d="M58.9587 292.095L51.6895 286.462L52.626 285.612L53.6963 284.763L54.8112 284.092L53.8301 282.885L52.2692 284.003L51.5557 283.064L56.3721 279.443L57.1302 280.471L55.5248 281.723L56.6397 283.064L57.8884 282.393L59.3155 281.857L60.9209 281.32L62.571 280.963L64.0427 280.694L65.4698 280.65V278.504H63.1954V276H72.1593V278.504H69.974L70.0186 280.694L71.5795 280.828L73.1404 281.276L74.7013 281.678L76.1284 282.259L77.5555 282.93L78.8488 283.69L80.0529 284.405L81.0786 285.21L82.5057 286.417L83.6652 287.624L84.6463 288.697L85.4044 289.859L78.5812 294.42L76.7081 292.408L75.2364 291.245L73.4526 290.172L71.8917 289.591L69.974 289.055L67.7888 288.921L65.9158 289.01L64.3995 289.323L62.794 289.815L61.3669 290.441L60.029 291.245L58.9587 292.095Z" fill="black" stroke="black"/>
<path d="M55.7924 295.94L48.4785 290.307L47.6758 291.514L46.9177 293.034L46.2041 294.956L45.5798 296.923L45.0892 299.785L45 302.02L45.0892 304.166L45.3122 306.133L45.6689 308.011L46.3825 310.157L47.2298 312.214L48.3001 314.181L49.4597 315.969L50.3516 317.131L51.4219 318.204L52.8936 319.59L54.4545 320.798L55.7032 321.647L57.1303 322.407L59.4047 323.48L61.3223 324.061L63.1954 324.553L64.8455 324.821L66.4955 325H68.5916H70.42L72.6499 324.732L73.9878 324.419L75.0581 324.106L76.5298 323.659L78.2244 322.899L79.4285 322.318L80.4989 321.692L81.3908 321.11L82.9071 319.903L83.6652 319.143L84.1558 318.696L84.5571 318.204L85.0923 317.713L85.5829 317.131L86.0288 316.55L86.3856 315.88L78.6258 310.515L78.3582 310.828L77.4663 311.856L76.7082 312.661L75.8162 313.376L74.4783 314.315L72.5161 315.209L70.5538 315.835L69.0375 316.014L67.4767 316.103L65.559 315.969L64.8009 315.835L63.6414 315.522L62.7494 315.209L61.6791 314.762L60.921 314.315L59.7169 313.555L58.3344 312.348L57.3087 311.141L56.1045 309.486L55.2126 307.787L54.4545 305.686L54.1869 303.317L54.3207 300.992L54.4545 299.964L54.9004 298.309L55.7924 295.94Z" fill="black" stroke="black"/>
<ellipse cx="67.655" cy="302.557" rx="2.85418" ry="2.86131" fill="white"/>
<path d="M95.1709 295.761V281.857L131.294 281.812V292.497H107.257L112.697 298.041H131.294V308.86H108.238L95.1709 295.761Z" fill="black"/>
<path d="M106.008 311.096L95.3047 300.5V324.911L129.822 324.953L131.294 324.955V314.091H131.116H106.008V311.096Z" fill="black"/>
<path d="M95.1709 295.761V281.857L131.294 281.812V292.497H107.257L112.697 298.041H131.294V308.86H108.238L95.1709 295.761Z" stroke="black"/>
<path d="M106.008 311.096L95.3047 300.5V324.911L129.822 324.953L131.294 324.955V314.091H131.116H106.008V311.096Z" stroke="black"/>
<path d="M173.706 295.761V281.857L209.829 281.812V292.497H185.792L191.233 298.041H209.829V308.86H186.773L173.706 295.761Z" fill="black"/>
<path d="M184.543 311.096L173.84 300.5V324.911L208.358 324.953L209.829 324.955V314.091H209.651H184.543V311.096Z" fill="black"/>
<path d="M173.706 295.761V281.857L209.829 281.812V292.497H185.792L191.233 298.041H209.829V308.86H186.773L173.706 295.761Z" stroke="black"/>
<path d="M184.543 311.096L173.84 300.5V324.911L208.358 324.953L209.829 324.955V314.091H209.651H184.543V311.096Z" stroke="black"/>
<path d="M148.286 281.723H137.538L137.627 324.866H160.639L149.847 314.181H148.286V281.723Z" fill="black"/>
<path d="M167.552 314.225H154.708L165.456 324.955H167.552V314.225Z" fill="black"/>
<path d="M148.286 281.723H137.538L137.627 324.866H160.639L149.847 314.181H148.286V281.723Z" stroke="black"/>
<path d="M167.552 314.225H154.708L165.456 324.955H167.552V314.225Z" stroke="black"/>
<path fill-rule="evenodd" clip-rule="evenodd" d="M243.232 324.955C248.785 324.94 259.856 324.92 259.999 324.955L260 324.955L260 324.955L260 324.955C260 324.955 260 324.955 259.999 324.955C259.858 324.85 249.053 314.115 243.633 308.726H245.506L246.577 308.592L247.201 308.458L247.692 308.324L248.271 308.145L248.717 307.966L249.342 307.698L249.966 307.385L250.501 307.072L251.259 306.625L251.884 306.178L252.508 305.731L253.088 305.284L253.534 304.837L253.846 304.524L254.158 304.077L254.604 303.495L255.05 302.869L255.362 302.422L255.674 301.975L255.808 301.752L255.942 301.439L256.12 301.036L256.254 300.634L256.566 299.785L256.878 298.846L257.012 298.041L257.146 297.147L257.324 295.493V294.464L257.235 292.721L256.834 290.932L256.388 289.77L255.942 288.697L255.496 287.937L254.916 287.043L254.292 286.283L253.846 285.702L253.222 285.076L252.508 284.494L252.062 284.182L251.304 283.69L250.546 283.243L249.609 282.796L248.851 282.527L248.048 282.259L247.647 282.17L247.246 282.08L246.487 281.946L245.283 281.812H215.983V297.549L243.232 324.955ZM216.162 324.821H226.84V312.974L216.162 302.378V324.821ZM227.579 292.989L232.484 298.13H242.697L244.079 297.773L245.105 297.147L245.863 296.476L246.175 295.493L246.309 294.286V293.66L246.175 293.347L246.041 292.989H227.579Z" fill="black"/>
<path d="M243.232 324.955L242.877 325.308L243.024 325.456L243.233 325.455L243.232 324.955ZM260 324.955L259.722 325.371L259.765 325.4L259.813 325.419L260 324.955ZM260 324.955L259.813 325.419L260.05 325.515L260.266 325.379L260 324.955ZM260 324.955L260.266 325.379L260.5 325.232V324.955H260ZM243.633 308.726V308.226H242.421L243.281 309.081L243.633 308.726ZM245.506 308.726V309.226H245.538L245.568 309.222L245.506 308.726ZM246.577 308.592L246.639 309.088L246.66 309.086L246.682 309.081L246.577 308.592ZM247.201 308.458L247.306 308.947L247.32 308.944L247.333 308.94L247.201 308.458ZM247.692 308.324L247.823 308.806L247.831 308.804L247.839 308.802L247.692 308.324ZM248.271 308.145L248.419 308.623L248.438 308.617L248.457 308.609L248.271 308.145ZM248.717 307.966L248.903 308.43L248.915 308.426L248.717 307.966ZM249.342 307.698L249.539 308.157L249.553 308.152L249.566 308.145L249.342 307.698ZM249.966 307.385L250.19 307.832L250.204 307.825L250.218 307.817L249.966 307.385ZM250.501 307.072L250.754 307.504L250.755 307.503L250.501 307.072ZM251.259 306.625L251.513 307.056L251.532 307.044L251.55 307.031L251.259 306.625ZM252.508 305.731L252.799 306.137L252.806 306.132L252.813 306.127L252.508 305.731ZM253.088 305.284L253.393 305.68L253.419 305.66L253.442 305.637L253.088 305.284ZM253.534 304.837L253.888 305.19L253.888 305.19L253.534 304.837ZM253.846 304.524L254.2 304.877L254.231 304.846L254.256 304.81L253.846 304.524ZM254.158 304.077L253.761 303.772L253.755 303.781L253.748 303.79L254.158 304.077ZM254.604 303.495L255.001 303.8L255.006 303.793L255.011 303.786L254.604 303.495ZM255.05 302.869L255.457 303.16L255.46 303.156L255.05 302.869ZM255.362 302.422L255.772 302.709L255.772 302.709L255.362 302.422ZM255.674 301.975L256.084 302.262L256.094 302.247L256.103 302.232L255.674 301.975ZM255.808 301.752L256.237 302.009L256.255 301.979L256.268 301.948L255.808 301.752ZM255.942 301.439L255.485 301.236L255.482 301.242L255.942 301.439ZM256.12 301.036L256.577 301.239L256.587 301.217L256.595 301.194L256.12 301.036ZM256.254 300.634L255.785 300.462L255.782 300.469L255.78 300.476L256.254 300.634ZM256.566 299.785L257.036 299.957L257.038 299.95L257.041 299.942L256.566 299.785ZM256.878 298.846L257.353 299.004L257.365 298.966L257.372 298.928L256.878 298.846ZM257.012 298.041L257.506 298.123L257.507 298.115L257.012 298.041ZM257.146 297.147L257.641 297.221L257.642 297.211L257.643 297.2L257.146 297.147ZM257.324 295.493L257.822 295.546L257.824 295.52V295.493H257.324ZM257.324 294.464H257.824V294.452L257.824 294.439L257.324 294.464ZM257.235 292.721L257.735 292.695L257.732 292.653L257.723 292.611L257.235 292.721ZM256.834 290.932L257.322 290.823L257.314 290.787L257.301 290.753L256.834 290.932ZM256.388 289.77L256.855 289.591L256.85 289.578L256.388 289.77ZM255.942 288.697L256.404 288.505L256.39 288.474L256.373 288.444L255.942 288.697ZM255.496 287.937L255.927 287.684L255.922 287.674L255.915 287.665L255.496 287.937ZM254.916 287.043L255.336 286.771L255.32 286.747L255.303 286.725L254.916 287.043ZM254.292 286.283L253.895 286.587L253.9 286.594L253.905 286.6L254.292 286.283ZM253.846 285.702L254.243 285.397L254.223 285.371L254.2 285.348L253.846 285.702ZM253.222 285.076L253.576 284.723L253.557 284.704L253.537 284.688L253.222 285.076ZM252.508 284.494L252.824 284.107L252.81 284.096L252.795 284.085L252.508 284.494ZM252.062 284.182L252.349 283.772L252.342 283.767L252.334 283.762L252.062 284.182ZM251.304 283.69L251.576 283.27L251.567 283.264L251.558 283.259L251.304 283.69ZM250.546 283.243L250.8 282.812L250.781 282.801L250.761 282.791L250.546 283.243ZM249.609 282.796L249.825 282.344L249.801 282.333L249.776 282.324L249.609 282.796ZM248.851 282.527L249.018 282.056L249.01 282.053L248.851 282.527ZM248.048 282.259L248.207 281.785L248.182 281.777L248.157 281.771L248.048 282.259ZM247.647 282.17L247.756 281.682L247.756 281.682L247.647 282.17ZM247.246 282.08L247.354 281.592L247.344 281.59L247.333 281.588L247.246 282.08ZM246.487 281.946L246.575 281.454L246.559 281.451L246.543 281.449L246.487 281.946ZM245.283 281.812L245.339 281.315L245.311 281.312H245.283V281.812ZM215.983 281.812V281.312H215.483V281.812H215.983ZM215.983 297.549H215.483V297.756L215.629 297.902L215.983 297.549ZM226.84 324.821V325.321H227.34V324.821H226.84ZM216.162 324.821H215.662V325.321H216.162V324.821ZM226.84 312.974H227.34V312.765L227.192 312.619L226.84 312.974ZM216.162 302.378L216.514 302.023L215.662 301.177V302.378H216.162ZM232.484 298.13L232.122 298.476L232.27 298.63H232.484V298.13ZM227.579 292.989V292.489H226.41L227.217 293.334L227.579 292.989ZM242.697 298.13V298.63H242.76L242.822 298.615L242.697 298.13ZM244.079 297.773L244.204 298.257L244.276 298.238L244.34 298.2L244.079 297.773ZM245.105 297.147L245.365 297.574L245.403 297.551L245.436 297.521L245.105 297.147ZM245.863 296.476L246.194 296.851L246.298 296.759L246.34 296.628L245.863 296.476ZM246.175 295.493L246.652 295.644L246.667 295.597L246.672 295.548L246.175 295.493ZM246.309 294.286L246.806 294.341L246.809 294.313V294.286H246.309ZM246.309 293.66H246.809V293.557L246.769 293.463L246.309 293.66ZM246.175 293.347L245.707 293.522L245.711 293.533L245.716 293.543L246.175 293.347ZM246.041 292.989L246.51 292.814L246.388 292.489H246.041V292.989ZM260.117 324.469C260.082 324.46 260.053 324.457 260.048 324.457C260.036 324.455 260.026 324.455 260.019 324.454C260.004 324.453 259.988 324.452 259.973 324.452C259.943 324.451 259.904 324.45 259.858 324.449C259.765 324.447 259.634 324.445 259.469 324.444C259.141 324.441 258.674 324.439 258.101 324.438C256.955 324.435 255.384 324.435 253.644 324.436C250.164 324.439 246.007 324.448 243.231 324.455L243.233 325.455C246.01 325.448 250.166 325.439 253.645 325.436C255.385 325.435 256.955 325.435 258.099 325.438C258.671 325.439 259.135 325.441 259.461 325.444C259.624 325.445 259.751 325.447 259.838 325.449C259.882 325.449 259.914 325.45 259.935 325.451C259.939 325.451 259.943 325.451 259.946 325.452C259.949 325.452 259.95 325.452 259.95 325.452C259.95 325.452 259.949 325.452 259.947 325.452C259.946 325.451 259.943 325.451 259.939 325.451C259.939 325.451 259.913 325.448 259.88 325.44L260.117 324.469ZM260.278 324.539L260.277 324.539L259.721 325.37L259.722 325.371L260.278 324.539ZM260.187 324.492L260.187 324.491L259.813 325.419L259.813 325.419L260.187 324.492ZM259.734 324.532L259.734 324.532L260.266 325.379L260.266 325.379L259.734 324.532ZM259.881 325.44C259.869 325.438 259.827 325.427 259.777 325.403C259.754 325.391 259.701 325.363 259.647 325.309C259.593 325.255 259.5 325.136 259.5 324.955H260.5C260.5 324.775 260.407 324.655 260.353 324.601C260.299 324.547 260.246 324.519 260.222 324.507C260.172 324.482 260.129 324.472 260.117 324.469L259.881 325.44ZM243.281 309.081C245.991 311.775 250.047 315.806 253.444 319.177C255.142 320.862 256.675 322.382 257.793 323.488C258.352 324.041 258.807 324.49 259.127 324.805C259.287 324.962 259.414 325.086 259.503 325.173C259.547 325.216 259.584 325.251 259.61 325.276C259.62 325.286 259.665 325.329 259.7 325.356L260.297 324.553C260.324 324.573 260.339 324.589 260.3 324.552C260.277 324.53 260.244 324.498 260.2 324.456C260.113 324.371 259.988 324.248 259.828 324.092C259.509 323.778 259.055 323.33 258.496 322.777C257.379 321.672 255.846 320.152 254.148 318.467C250.752 315.097 246.696 311.066 243.986 308.372L243.281 309.081ZM245.506 308.226H243.633V309.226H245.506V308.226ZM246.514 308.096L245.444 308.23L245.568 309.222L246.639 309.088L246.514 308.096ZM247.096 307.969L246.472 308.103L246.682 309.081L247.306 308.947L247.096 307.969ZM247.56 307.842L247.069 307.976L247.333 308.94L247.823 308.806L247.56 307.842ZM248.124 307.667L247.544 307.846L247.839 308.802L248.419 308.623L248.124 307.667ZM248.531 307.502L248.085 307.681L248.457 308.609L248.903 308.43L248.531 307.502ZM249.144 307.239L248.52 307.507L248.915 308.426L249.539 308.157L249.144 307.239ZM249.742 306.938L249.118 307.251L249.566 308.145L250.19 307.832L249.742 306.938ZM250.249 306.64L249.714 306.953L250.218 307.817L250.754 307.504L250.249 306.64ZM251.005 306.194L250.247 306.641L250.755 307.503L251.513 307.056L251.005 306.194ZM251.593 305.771L250.968 306.218L251.55 307.031L252.175 306.584L251.593 305.771ZM252.217 305.324L251.593 305.771L252.175 306.584L252.799 306.137L252.217 305.324ZM252.782 304.888L252.203 305.335L252.813 306.127L253.393 305.68L252.782 304.888ZM253.18 304.484L252.734 304.931L253.442 305.637L253.888 305.19L253.18 304.484ZM253.492 304.171L253.18 304.484L253.888 305.19L254.2 304.877L253.492 304.171ZM253.748 303.79L253.436 304.237L254.256 304.81L254.568 304.363L253.748 303.79ZM254.207 303.191L253.761 303.772L254.555 304.381L255.001 303.8L254.207 303.191ZM254.643 302.579L254.197 303.205L255.011 303.786L255.457 303.16L254.643 302.579ZM254.952 302.136L254.64 302.583L255.46 303.156L255.772 302.709L254.952 302.136ZM255.264 301.689L254.952 302.136L255.772 302.709L256.084 302.262L255.264 301.689ZM255.379 301.495L255.245 301.719L256.103 302.232L256.237 302.009L255.379 301.495ZM255.482 301.242L255.348 301.555L256.268 301.948L256.402 301.635L255.482 301.242ZM255.663 300.834L255.485 301.236L256.399 301.641L256.577 301.239L255.663 300.834ZM255.78 300.476L255.646 300.879L256.595 301.194L256.729 300.792L255.78 300.476ZM256.097 299.612L255.785 300.462L256.723 300.807L257.036 299.957L256.097 299.612ZM256.404 298.688L256.092 299.627L257.041 299.942L257.353 299.004L256.404 298.688ZM256.519 297.959L256.385 298.764L257.372 298.928L257.505 298.123L256.519 297.959ZM256.652 297.073L256.518 297.967L257.507 298.115L257.641 297.221L256.652 297.073ZM256.827 295.439L256.649 297.093L257.643 297.2L257.822 295.546L256.827 295.439ZM256.824 294.464V295.493H257.824V294.464H256.824ZM256.736 292.746L256.825 294.49L257.824 294.439L257.735 292.695L256.736 292.746ZM256.346 291.042L256.747 292.83L257.723 292.611L257.322 290.823L256.346 291.042ZM255.921 289.949L256.367 291.112L257.301 290.753L256.855 289.591L255.921 289.949ZM255.48 288.889L255.926 289.962L256.85 289.578L256.404 288.505L255.48 288.889ZM255.065 288.19L255.511 288.95L256.373 288.444L255.927 287.684L255.065 288.19ZM254.497 287.315L255.076 288.209L255.915 287.665L255.336 286.771L254.497 287.315ZM253.905 286.6L254.53 287.36L255.303 286.725L254.678 285.965L253.905 286.6ZM253.449 286.006L253.895 286.587L254.689 285.978L254.243 285.397L253.449 286.006ZM252.868 285.429L253.492 286.055L254.2 285.348L253.576 284.723L252.868 285.429ZM252.192 284.882L252.906 285.463L253.537 284.688L252.824 284.107L252.192 284.882ZM251.775 284.591L252.221 284.904L252.795 284.085L252.349 283.772L251.775 284.591ZM251.032 284.109L251.79 284.601L252.334 283.762L251.576 283.27L251.032 284.109ZM250.292 283.673L251.05 284.12L251.558 283.259L250.8 282.812L250.292 283.673ZM249.394 283.247L250.33 283.694L250.761 282.791L249.825 282.344L249.394 283.247ZM248.684 282.999L249.442 283.267L249.776 282.324L249.018 282.056L248.684 282.999ZM247.89 282.733L248.693 283.002L249.01 282.053L248.207 281.785L247.89 282.733ZM247.538 282.658L247.94 282.747L248.157 281.771L247.756 281.682L247.538 282.658ZM247.137 282.568L247.538 282.658L247.756 281.682L247.354 281.592L247.137 282.568ZM246.4 282.438L247.158 282.573L247.333 281.588L246.575 281.454L246.4 282.438ZM245.228 282.309L246.432 282.443L246.543 281.449L245.339 281.315L245.228 282.309ZM215.983 282.312H245.283V281.312H215.983V282.312ZM216.483 297.549V281.812H215.483V297.549H216.483ZM243.586 324.603L216.338 297.197L215.629 297.902L242.877 325.308L243.586 324.603ZM226.84 324.321H216.162V325.321H226.84V324.321ZM226.34 312.974V324.821H227.34V312.974H226.34ZM215.81 302.733L226.488 313.328L227.192 312.619L216.514 302.023L215.81 302.733ZM216.662 324.821V302.378H215.662V324.821H216.662ZM232.846 297.785L227.94 292.644L227.217 293.334L232.122 298.476L232.846 297.785ZM242.697 297.63H232.484V298.63H242.697V297.63ZM243.954 297.289L242.571 297.646L242.822 298.615L244.204 298.257L243.954 297.289ZM244.844 296.72L243.819 297.346L244.34 298.2L245.365 297.574L244.844 296.72ZM245.532 296.102L244.774 296.772L245.436 297.521L246.194 296.851L245.532 296.102ZM245.699 295.341L245.387 296.325L246.34 296.628L246.652 295.644L245.699 295.341ZM245.812 294.23L245.678 295.438L246.672 295.548L246.806 294.341L245.812 294.23ZM245.809 293.66V294.286H246.809V293.66H245.809ZM245.716 293.543L245.849 293.856L246.769 293.463L246.635 293.15L245.716 293.543ZM245.573 293.164L245.707 293.522L246.644 293.172L246.51 292.814L245.573 293.164ZM227.579 293.489H246.041V292.489H227.579V293.489Z" fill="black"/>
<g clip-path="url(#clip0_189_1865)">
<path d="M110.185 13.99C108.317 14.3517 106.364 14.7195 105.067 15.3122C102.716 16.3752 103.042 17.9486 104.924 19.1301C106.807 20.3117 109.952 21.1516 113.15 21.9011C131.637 26.2475 154.347 28.3313 176.531 27.7284C181.458 27.5938 186.535 27.3065 190.664 26.354C200.046 24.1898 201.156 19.5983 201.309 15.6579C201.428 12.5694 201.49 9.3744 198.025 6.53509C195.549 4.50357 188.974 0.790166 182.448 0.137105C175.344 -0.576239 165.534 1.95965 159.611 3.13114C142.654 6.46878 127.226 10.6866 110.185 13.99Z" fill="#0B528C"/>
<path d="M81.8417 235.847C62.7916 240.714 41.9717 238.294 24.5486 229.192C15.5505 224.49 6.78169 216.904 5.84447 206.803C4.80468 195.584 13.7344 185.961 23.006 179.549C32.2777 173.137 42.9732 167.828 48.8741 158.225C52.3796 152.518 53.8257 145.813 55.0424 139.226C56.0842 133.588 56.9933 127.726 55.5593 122.172C53.9926 116.09 49.8093 111.084 46.71 105.621C37.9955 90.2526 38.2831 70.1925 47.4361 55.0817C56.589 39.9709 74.2454 30.4081 91.9138 30.9908C99.5362 31.242 106.976 33.2232 114.471 34.6238C140.957 39.5851 168.388 37.2602 194.684 31.3565C204.265 29.2044 213.835 26.5681 223.645 26.2646C240.356 25.7482 257.075 32.327 269.326 43.6983C281.576 55.0696 289.321 71.0264 291.224 87.6263C293.621 108.536 284.607 132.523 264.925 140.028C257.172 142.984 247.261 144.087 243.731 151.592C240.821 157.779 244.053 164.959 247.15 171.049C254.405 185.294 261.283 199.971 264.205 215.684C265.848 224.514 265.965 234.422 260.519 241.568C257.317 245.766 252.532 248.502 247.581 250.345C232.318 256.026 215.432 254.03 199.215 252.509C163.602 249.175 127.788 248.523 92.0767 250.56C87.1372 250.843 81.9965 251.145 77.4271 249.252C72.8576 247.359 69.0987 242.536 70.1526 237.714" fill="#0B528C"/>
<path d="M48.0437 236.692C48.0437 236.692 82.3528 198.742 103.408 207.957C124.463 217.172 158.917 237.928 176.652 229.142C210.271 212.49 211.311 225.815 246.966 249.649H45.041" fill="#CCEAFF"/>
<path d="M260.764 197.154L261.309 196.772C265.452 193.879 268.43 192.151 268.461 192.151L270.003 191.265L265.458 203.321L260.764 197.154Z" fill="#233E00"/>
<path d="M268.779 192.704L265.268 202.011L261.676 197.303C265.843 194.392 268.779 192.704 268.779 192.704V192.704ZM271.229 189.824L268.142 191.599C268.021 191.669 265.111 193.349 260.944 196.258L259.855 197.02L260.66 198.077L264.254 202.785L265.65 204.616L266.454 202.461L269.966 193.154L271.221 189.824H271.229Z" fill="white"/>
<path d="M257.411 199.6L258.075 199.103C258.968 198.438 259.905 197.759 260.862 197.094L261.365 196.74L265.524 202.186L265.784 202.447L265.641 202.833L264.678 205.381L257.411 199.6Z" fill="#233E00"/>
<path d="M261.23 197.607L265.042 202.6L264.388 204.33L258.455 199.616C259.42 198.897 260.349 198.226 261.228 197.607H261.23ZM261.498 195.856L260.492 196.566C259.529 197.243 258.588 197.926 257.693 198.593L256.365 199.582L257.66 200.613L263.593 205.329L264.963 206.418L265.583 204.78L266.234 203.05L266.53 202.271L265.997 201.752L262.242 196.833L261.498 195.856V195.856Z" fill="white"/>
<path d="M253.882 202.373L254.304 202.031C255.364 201.173 256.482 200.301 257.627 199.441L258.029 199.144L264.96 204.651L261.086 214.917L253.882 202.373Z" fill="#233E00"/>
<path d="M258.011 199.949L264.192 204.86L260.96 213.427L254.705 202.527C255.833 201.615 256.941 200.755 258.011 199.949V199.949ZM258.031 198.342L257.243 198.945C256.093 199.811 254.968 200.689 253.902 201.557L253.058 202.24L253.599 203.18L259.851 214.082L261.199 216.427L262.152 213.897L265.384 205.331L265.712 204.46L264.986 203.884L258.806 198.973L258.031 198.358V198.342Z" fill="white"/>
<path d="M246.207 209.293L246.71 208.795C248.858 206.661 251.269 204.503 253.876 202.377L254.459 201.902L261.416 214.027L259.203 219.865L246.207 209.293Z" fill="#233E00"/>
<path d="M254.28 202.871L260.716 214.083L258.932 218.811L247.164 209.247C249.489 206.936 251.923 204.794 254.284 202.871H254.28ZM254.642 200.932L253.476 201.882C250.861 204.02 248.427 206.194 246.265 208.342L245.26 209.347L246.36 210.241L258.127 219.806L259.501 220.923L260.127 219.268L261.91 214.537L262.124 213.977L261.824 213.454L255.388 202.242L254.64 200.938L254.642 200.932Z" fill="white"/>
<path d="M242.46 213.372L242.727 213.06C243.813 211.794 245.022 210.49 246.321 209.182L246.724 208.78L259.479 219.151L253.097 236.07L242.46 213.372Z" fill="#233E00"/>
<path d="M246.776 209.63L258.727 219.348L253.039 234.418L243.204 213.474C244.34 212.15 245.539 210.862 246.768 209.63H246.776ZM246.675 207.912L245.871 208.732C244.562 210.05 243.343 211.366 242.251 212.644L241.716 213.271L242.064 214.017L251.892 234.965L253.176 237.7L254.242 234.874L259.929 219.804L260.253 218.946L259.539 218.365L247.589 208.65L246.692 207.92L246.675 207.912Z" fill="white"/>
<path d="M233.551 230.548L233.619 230.16C234.536 224.898 237.471 219.298 242.346 213.516L242.987 212.755L253.462 235.102L250.473 243.029L233.551 230.548Z" fill="#233E00"/>
<path d="M242.824 213.927L252.774 235.132L250.177 242.018L234.238 230.279C235.244 224.547 238.585 218.966 242.824 213.937V213.927ZM243.134 211.592L241.849 213.117C236.901 218.984 233.919 224.685 232.981 230.062L232.847 230.838L233.48 231.306L249.419 243.053L250.777 244.058L251.37 242.483L253.968 235.594L254.157 235.092L253.93 234.604L243.981 213.4L243.134 211.592V211.592Z" fill="white"/>
<path d="M245.686 253.478C236.364 246.974 232.269 239.336 233.512 230.772L233.665 229.719L250.746 242.31L246.358 253.942L245.686 253.478Z" fill="#233E00"/>
<path d="M234.153 230.87L249.988 242.543L246.06 252.956C236.004 245.935 233.075 238.287 234.153 230.87V230.87ZM233.196 228.579L232.89 230.685C231.609 239.502 235.795 247.347 245.33 253.994L246.675 254.933L247.254 253.398L251.182 242.987L251.522 242.083L250.746 241.51L234.91 229.837L233.196 228.573V228.579Z" fill="white"/>
<path d="M269.722 191.156L270.295 192.836C270.307 192.868 271.399 196.075 272.61 201.027L272.769 201.672L265.179 203.199L269.722 191.156Z" fill="#172800"/>
<path d="M269.692 193.041C269.726 193.142 270.802 196.321 271.991 201.179L266.181 202.347L269.692 193.041ZM269.753 189.268L268.498 192.591L264.988 201.899L264.184 204.053L266.442 203.597L272.25 202.429L273.554 202.166L273.238 200.876C272.031 195.919 270.919 192.664 270.909 192.637L269.753 189.268Z" fill="white"/>
<path d="M264.398 205.268L265.484 202.389L272.596 200.958L272.739 201.561C273.002 202.656 273.258 203.785 273.499 204.917L273.67 205.72L264.398 205.268Z" fill="#172800"/>
<path d="M272.119 201.706C272.371 202.751 272.624 203.866 272.876 205.044L265.303 204.674L265.955 202.944L272.119 201.706ZM273.071 200.213L271.864 200.456L265.7 201.694L265.008 201.832L264.758 202.494L264.105 204.226L263.489 205.863L265.237 205.948L272.809 206.318L274.462 206.398L274.118 204.78C273.879 203.645 273.622 202.51 273.356 201.407L273.067 200.213H273.071Z" fill="white"/>
<path d="M264.671 204.545L273.521 204.979L273.621 205.461C273.921 206.908 274.178 208.26 274.406 209.599L274.498 210.133L260.798 214.807L264.671 204.545Z" fill="#172800"/>
<path d="M265.104 205.204L272.99 205.59C273.262 206.9 273.529 208.278 273.773 209.705L261.872 213.77L265.104 205.204ZM264.237 203.886L263.92 204.76L260.688 213.324L259.732 215.856L262.295 214.98L274.195 210.917L275.223 210.565L275.04 209.496C274.81 208.152 274.553 206.791 274.249 205.335L274.048 204.37L273.061 204.322L265.175 203.936L264.246 203.89L264.237 203.886Z" fill="white"/>
<path d="M258.932 219.76L261.064 214.106L261.243 213.882L261.419 213.82L274.37 209.399L274.492 210.141C275.049 213.462 275.434 216.674 275.639 219.686L275.687 220.391L258.932 219.76Z" fill="#172800"/>
<path d="M273.865 210.246C274.366 213.246 274.78 216.461 275.001 219.728L259.841 219.157L261.625 214.425L273.863 210.246H273.865ZM274.868 208.554L273.445 209.038L261.206 213.218L260.919 213.316L260.706 213.535L260.521 213.726L260.424 213.977L258.64 218.707L258.017 220.365L259.786 220.431L274.947 221.002L276.365 221.056L276.268 219.65C276.067 216.618 275.665 213.384 275.116 210.043L274.868 208.562V208.554Z" fill="white"/>
<path d="M259.208 219.026L275.639 219.645L275.673 220.222C275.786 222.059 275.832 223.839 275.814 225.509V225.911L252.83 235.94L259.208 219.026Z" fill="#172800"/>
<path d="M259.642 219.69L275.037 220.268C275.142 222.011 275.196 223.765 275.176 225.509L253.954 234.768L259.642 219.698V219.69ZM258.771 218.39L258.447 219.248L252.759 234.318L251.693 237.146L254.465 235.94L275.687 226.681L276.441 226.349V225.525C276.461 223.837 276.413 222.043 276.3 220.194L276.23 219.041L275.076 218.996L259.696 218.424L258.777 218.39H258.771Z" fill="white"/>
<path d="M250.195 242.925L253.184 234.999L275.824 225.121L275.804 226.126C275.649 233.681 274.157 239.824 271.379 244.383L271.178 244.719L250.195 242.925Z" fill="#172800"/>
<path d="M275.166 226.104C275.032 232.679 273.859 239.079 270.824 244.044L251.088 242.36L253.687 235.476L275.166 226.104V226.104ZM276.484 224.139L274.656 224.942L253.176 234.314L252.683 234.529L252.482 235.032L249.886 241.918L249.282 243.493L250.962 243.638L270.698 245.32L271.484 245.386L271.886 244.713C274.732 240.055 276.256 233.806 276.413 226.136L276.456 224.145L276.484 224.139Z" fill="white"/>
<path d="M251.671 254.209C250.074 254.205 248.479 254.112 246.892 253.932L246.088 253.841L250.472 242.211L271.624 244.019L271.043 244.912C267.014 251.079 260.5 254.209 251.671 254.209Z" fill="#172800"/>
<path d="M250.891 242.889L270.5 244.556C266.966 249.982 261.074 253.573 251.671 253.573C250.099 253.569 248.528 253.477 246.965 253.299L250.891 242.889V242.889ZM250.042 241.532L249.702 242.434L245.776 252.845L245.197 254.38L246.828 254.561C248.438 254.745 250.057 254.839 251.677 254.845C260.728 254.845 267.431 251.615 271.574 245.248L272.737 243.463L270.613 243.282L251.006 241.615L250.042 241.532Z" fill="white"/>
<path d="M297.671 197.295C297.671 197.295 297.505 185.574 302.889 187.027C308.273 188.48 297.671 197.295 297.671 197.295Z" fill="#321A0E"/>
<path d="M293.332 199.736C293.332 199.736 287.58 194.208 291.379 191.821C295.178 189.434 293.332 199.736 293.332 199.736Z" fill="#321A0E"/>
<path d="M288.858 207.322C288.858 207.322 283.108 201.794 286.905 199.407C290.702 197.02 288.858 207.322 288.858 207.322Z" fill="#321A0E"/>
<path d="M285.248 215.8C285.248 215.8 279.496 210.272 283.294 207.887C287.091 205.502 285.248 215.8 285.248 215.8Z" fill="#321A0E"/>
<path d="M297.368 202.232C297.368 202.232 304.037 195.436 305.795 198.85C307.553 202.264 297.368 202.232 297.368 202.232Z" fill="#321A0E"/>
<path d="M293.43 209.229C293.43 209.229 300.097 202.431 301.857 205.845C303.616 209.259 293.43 209.229 293.43 209.229Z" fill="#321A0E"/>
<path d="M287.853 216.836C287.853 216.836 294.52 210.038 296.279 213.452C298.039 216.866 287.853 216.836 287.853 216.836Z" fill="#321A0E"/>
<path d="M280.508 223.089C280.508 223.089 274.756 217.562 278.553 215.174C282.351 212.787 280.508 223.089 280.508 223.089Z" fill="#321A0E"/>
<path d="M276.027 230.682C276.027 230.682 270.275 225.154 274.074 222.769C277.873 220.383 276.027 230.682 276.027 230.682Z" fill="#321A0E"/>
<path d="M272.424 239.15C272.424 239.15 266.674 233.622 270.471 231.236C274.268 228.851 272.424 239.15 272.424 239.15Z" fill="#321A0E"/>
<path d="M284.545 225.583C284.545 225.583 291.214 218.785 292.972 222.199C294.73 225.613 284.545 225.583 284.545 225.583Z" fill="#321A0E"/>
<path d="M280.612 232.578C280.612 232.578 287.279 225.78 289.039 229.194C290.799 232.608 280.612 232.578 280.612 232.578Z" fill="#321A0E"/>
<path d="M275.037 240.186C275.037 240.186 281.704 233.388 283.464 236.802C285.224 240.216 275.037 240.186 275.037 240.186Z" fill="#321A0E"/>
<path d="M300.046 192.936L267.391 250.533L267.77 250.748L300.426 193.151L300.046 192.936Z" fill="#321A0E"/>
<path d="M293.931 204.157L292.203 195.637L292.632 195.559L294.255 203.512L302.042 200.076L302.235 200.468L293.931 204.157Z" fill="#321A0E"/>
<path d="M289.719 211.636L287.437 203.285L287.861 203.179L289.999 210.969L296.575 207.314L296.795 207.692L289.719 211.636Z" fill="#321A0E"/>
<path d="M285.86 218.496L284.014 212.363L284.43 212.234L286.099 217.798L292.063 214.495L292.312 214.853L285.86 218.496Z" fill="#321A0E"/>
<path d="M281.161 226.628L279.094 218.996L279.516 218.892L281.481 226.101L288.808 224.076L288.912 224.5L281.161 226.628Z" fill="#321A0E"/>
<path d="M277.201 233.673L274.792 227.983L275.186 227.798L277.443 233.161L283.539 231.541L283.647 231.965L277.201 233.673Z" fill="#321A0E"/>
<path d="M272.666 241.656L271.439 235.801L271.868 235.723L272.994 241.026L276.542 239.406L276.723 239.802L272.666 241.656Z" fill="#321A0E"/>
<path d="M3.38281 174.004L3.51153 173.283C4.8711 165.602 6.24273 160.48 6.25681 160.422L6.76766 158.527L14.4525 175.487L3.38281 174.004Z" fill="#5D7244"/>
<path d="M6.93686 160.613L13.2862 174.629L4.20364 173.413C5.57528 165.675 6.93686 160.621 6.93686 160.621V160.613ZM6.60099 156.464L5.57729 160.254C5.52098 160.455 4.18353 165.456 2.81793 173.168L2.5625 174.611L4.0166 174.812L13.0992 176.038L15.6172 176.375L14.5694 174.062L8.22001 160.047L6.60099 156.47V156.464Z" fill="white"/>
<path d="M2.52848 179.357C2.77586 177.657 3.05743 175.893 3.36514 174.11L3.47978 173.443L13.7369 174.822H14.1391L14.3282 175.236L15.905 178.722L2.3877 180.259L2.52848 179.357Z" fill="#5D7244"/>
<path d="M4.05828 174.23L13.6919 175.524L14.8725 178.137L3.22162 179.463C3.48911 177.622 3.77269 175.874 4.05627 174.238L4.05828 174.23ZM2.89983 172.663L2.66854 173.999C2.35881 175.79 2.07524 177.56 1.82786 179.262L1.56641 181.07L3.37649 180.87L15.0274 179.543L16.946 179.324L16.1416 177.566L14.963 174.954L14.5889 174.126H13.7864L4.24532 172.844L2.90184 172.663H2.89983Z" fill="white"/>
<path d="M1.54492 187.264L1.60727 186.661C1.8285 184.571 2.09599 182.399 2.41175 180.207L2.48817 179.666L15.6756 178.165L22.3347 192.904L1.54492 187.264Z" fill="#5D7244"/>
<path d="M15.2368 178.931L21.0693 191.83L2.29873 186.742C2.53404 184.513 2.80555 182.361 3.09315 180.312L15.2287 178.931H15.2368ZM16.0875 177.416L15.0698 177.533L2.93427 178.915L1.86029 179.04L1.70945 180.119C1.39972 182.317 1.13022 184.497 0.904967 186.597L0.780273 187.789L1.93671 188.102L20.7072 193.19L23.5893 193.97L22.3584 191.251L16.526 178.352L16.1016 177.418L16.0875 177.416Z" fill="white"/>
<path d="M0.708182 202.333C0.72226 197.661 0.995783 192.676 1.51266 187.513L1.59512 186.688L22.0269 192.223L25.7939 200.54L0.702148 203.117L0.708182 202.333Z" fill="#5D7244"/>
<path d="M2.21859 187.584L21.5261 192.808L24.744 199.929L1.40204 202.327C1.41813 197.261 1.73389 192.258 2.20652 187.576L2.21859 187.584ZM0.973654 185.785L0.806727 187.435C0.279793 192.619 0.0022435 197.629 -0.0078125 202.323V203.886L1.54886 203.725L24.8969 201.344L26.8417 201.143L26.0372 199.365L22.8193 192.241L22.5458 191.639L21.9062 191.464L2.59871 186.239L0.989747 185.805L0.973654 185.785Z" fill="white"/>
<path d="M1.05595 211.781L1.02175 211.329C0.820634 208.763 0.718064 206.02 0.708008 203.179V202.55L25.5524 200L36.7346 224.684L1.05595 211.781Z" fill="#5D7244"/>
<path d="M25.1178 200.741L35.4031 223.448L1.72354 211.275C1.52242 208.584 1.42186 205.871 1.4118 203.177L25.1178 200.741ZM25.9826 199.238L24.977 199.343L1.27102 201.774L0.00195312 201.905V203.179C0.0120091 206.038 0.118598 208.805 0.317707 211.379L0.3881 212.286L1.24286 212.595L34.9224 224.768L38.0599 225.901L36.6842 222.865L26.3989 200.159L25.9806 199.234L25.9826 199.238Z" fill="white"/>
<path d="M9.71855 239.851C4.98821 233.135 2.08605 223.85 1.09453 212.253L1 211.156L36.3971 223.95L41.6001 235.438L9.96794 240.206L9.71855 239.851Z" fill="#5D7244"/>
<path d="M1.79393 212.195L35.8858 224.513L40.5839 234.881L10.2933 239.449C5.1104 232.088 2.66478 222.324 1.79393 212.195ZM0.205078 210.123L0.392124 212.313C1.39772 224.036 4.34011 233.438 9.14084 240.258L9.64163 240.97L10.5024 240.839L40.7931 236.274L42.6333 235.996L41.8651 234.302L37.1669 223.932L36.9236 223.391L36.3644 223.19L2.27259 210.869L0.205078 210.121V210.123Z" fill="white"/>
<path d="M37.3639 253.059C25.5561 253.059 16.4474 248.877 10.2811 240.628L9.57715 239.686L41.3541 234.896L49.049 251.883L48.158 252.042C44.5964 252.694 40.9847 253.034 37.3639 253.059Z" fill="#5D7244"/>
<path d="M40.9403 235.671L48.0438 251.344C44.5204 251.991 40.9468 252.327 37.3643 252.349C24.7783 252.349 16.3533 247.572 10.8447 240.2L40.9403 235.665V235.671ZM41.785 234.115L40.7311 234.274L10.6355 238.809L8.31055 239.159L9.71839 241.042C16.0235 249.481 25.3253 253.755 37.3663 253.755C41.0309 253.731 44.6864 253.387 48.2912 252.728L50.0751 252.411L49.3249 250.775L42.2214 235.102L41.7829 234.133L41.785 234.115Z" fill="white"/>
<path d="M6.86426 158.497L8.62607 159.361C8.67233 159.385 13.4047 161.716 20.102 165.779L20.7275 166.159L14.545 175.453L6.86426 158.497Z" fill="#321A0E"/>
<path d="M8.31456 159.992C8.46138 160.064 13.1193 162.367 19.7362 166.38L14.6619 174.016L8.31456 160.002V159.992ZM5.41642 157.012L7.02538 160.583L13.3727 174.596L14.4206 176.909L15.8284 174.795L20.9027 167.16L21.7071 165.94L20.4521 165.178C13.7187 161.095 8.97021 158.748 8.92194 158.732L5.40234 157.004L5.41642 157.012Z" fill="white"/>
<path d="M14.2656 174.839L20.2429 165.863L20.8201 166.215C22.3064 167.123 23.8208 168.078 25.3192 169.05L26.0834 169.549L16.0073 178.679L14.2656 174.839Z" fill="#321A0E"/>
<path d="M20.4518 166.815C21.8717 167.682 23.3721 168.624 24.9348 169.641L16.2504 177.51L15.0678 174.897L20.4518 166.809V166.815ZM20.0315 164.902L19.2813 166.03L13.8953 174.118L13.4629 174.767L13.7847 175.478L14.9673 178.09L15.7718 179.847L17.2037 178.55L25.8881 170.682L27.2416 169.456L25.7091 168.451C24.2087 167.475 22.6923 166.518 21.196 165.606L20.0395 164.898L20.0315 164.902Z" fill="white"/>
<path d="M15.7598 178.131L25.5925 169.226L26.0471 169.525C27.9597 170.779 29.7195 171.976 31.427 173.186L31.9157 173.532L22.4309 192.856L15.7598 178.131Z" fill="#321A0E"/>
<path d="M25.6588 170.113C27.3884 171.247 29.1885 172.464 31.0187 173.758L22.453 191.206L16.6205 178.308L25.6709 170.113H25.6588ZM25.5321 168.339L24.7276 169.071L15.6772 177.265L14.917 177.954L15.3393 178.887L21.1718 191.787L22.4027 194.506L23.718 191.827L32.2817 174.377L32.8106 173.302L31.8272 172.609C30.1136 171.403 28.3478 170.198 26.4271 168.934L25.516 168.331L25.5321 168.339Z" fill="white"/>
<path d="M22.1953 192.345V192.03L22.2677 191.881L31.4428 173.193L32.1186 173.676C36.3562 176.69 40.284 179.782 43.7976 182.847L44.3869 183.361L25.8839 200.497L22.1953 192.345Z" fill="#321A0E"/>
<path d="M31.7101 174.249C35.5435 176.981 39.5136 180.044 43.3349 183.377L26.129 199.318L22.8991 192.193L31.7101 174.251V174.249ZM31.1772 172.143L30.4451 173.63L21.636 191.574L21.4912 191.867V192.502L21.6179 192.781L24.8459 199.907L25.6504 201.685L27.0844 200.357L44.2962 184.408L45.4426 183.345L44.264 182.316C40.7324 179.236 36.7864 176.137 32.5307 173.103L31.1812 172.141L31.1772 172.143Z" fill="white"/>
<path d="M25.6426 199.947L43.9445 182.981L44.4212 183.403C46.545 185.282 48.5381 187.171 50.3461 189.018L50.6639 189.341L36.8248 224.633L25.6426 199.947Z" fill="#321A0E"/>
<path d="M43.9648 183.93C45.976 185.717 47.963 187.579 49.8515 189.508L36.7787 222.824L26.4935 200.118L43.9648 183.93ZM43.9426 182.031L43.0074 182.899L25.5361 199.087L24.792 199.776L25.2103 200.699L35.4956 223.405L36.8713 226.441L38.078 223.339L51.1508 190.023L51.4826 189.177L50.8471 188.526C49.037 186.667 47.0258 184.768 44.8859 182.877L43.9306 182.031H43.9426Z" fill="white"/>
<path d="M36.4971 223.91L50.2396 188.886L51.0019 189.69C59.0668 198.085 64.135 206.39 66.0657 214.373L66.1683 214.797L41.698 235.396L36.4971 223.91Z" fill="#321A0E"/>
<path d="M50.4936 190.169C57.5428 197.508 63.2667 205.787 65.3765 214.532L41.9561 234.258L37.2579 223.889L50.4896 190.169H50.4936ZM49.9828 187.609L49.1783 189.655L35.9506 223.377L35.7334 223.93L35.9788 224.47L40.6769 234.837L41.4432 236.531L42.8671 235.325L66.2896 215.611L66.9553 215.05L66.7541 214.204C64.7932 206.098 59.6667 197.685 51.5133 189.197L49.9908 187.611L49.9828 187.609Z" fill="white"/>
<path d="M41.4551 234.857L66.034 214.16L66.2773 215.31C69.0266 228.28 63.5039 240.381 49.8579 251.278L49.1519 251.843L41.4551 234.857Z" fill="#321A0E"/>
<path d="M65.5896 215.449C68.003 226.789 64.2441 238.885 49.4196 250.727L42.316 235.053L65.5896 215.452V215.449ZM66.4786 212.863L64.6805 214.376L41.409 233.976L40.6045 234.664L41.0449 235.632L48.1465 251.306L48.8926 252.953L50.3005 251.824C64.1777 240.744 69.7769 228.408 66.9673 215.156L66.4806 212.859L66.4786 212.863Z" fill="white"/>
<path d="M171.783 59.3398C171.783 59.3398 167.851 67.705 175.403 78.0535C181.071 85.8119 189.868 97.0807 193.918 102.237C194.573 103.073 195.504 103.649 196.544 103.863C197.585 104.077 198.668 103.914 199.6 103.404C204.61 100.651 215.764 94.4343 219.953 76.4279C219.953 76.4279 226.204 75.7708 229.51 71.6535C232.875 67.4639 230.737 61.944 228.191 60.6017C225.969 59.4342 218.877 65.6614 217.129 67.4619C212.069 72.6723 201.392 83.8266 199.137 87.4717C199.145 87.4737 189.304 53.205 171.783 59.3398Z" fill="#00FFD1" fill-opacity="0.9"/>
<path d="M196.723 80.666L188.801 95.6784L187.972 94.6114L186.394 86.6561L196.723 80.666Z" fill="black" fill-opacity="0.9"/>
<path d="M179.163 57.6699C179.163 57.6699 192.343 66.3406 197.365 79.9745L184.65 93.4878L176.651 68.7559" fill="#321A0E"/>
<path d="M178.398 20.1911C178.398 20.1911 193.079 22.7852 189.401 47.1856C189.14 48.9226 188.223 50.4939 186.84 51.5774C185.456 52.661 183.71 53.1746 181.959 53.0129C176.948 52.5468 170.663 48.9499 165.126 36.1338C157.087 17.5145 178.398 20.1911 178.398 20.1911Z" fill="#00FFD1" fill-opacity="0.9"/>
<path d="M167.072 40.2041V51.6799L179.164 57.672L182.736 48.939L167.072 40.2041Z" fill="#00FFD1" fill-opacity="0.9"/>
<path d="M170.031 157.235C169.629 170.772 145.858 183.357 138.785 186.819C137.532 187.431 136.212 187.894 134.851 188.2C129.892 189.311 116.36 192.166 103.408 193.32C96.2522 193.957 89.8405 194.961 86.2123 196.535C74.3462 201.681 68.1115 215.249 68.1115 215.249L64.5195 216.816C61.3961 197.789 75.9109 179.543 75.9109 179.543C75.9109 179.543 83.2498 184.066 84.8085 184.221C85.8845 184.33 93.0383 182.288 99.8341 178.967C102.899 177.469 105.767 175.55 108.221 173.774C113.762 169.755 130.853 176.073 130.853 176.073C141.39 161.219 149.577 117.87 149.577 117.87C149.577 117.87 170.498 141.328 170.031 157.235Z" fill="#00FFD1" fill-opacity="0.9"/>
<path d="M143.405 143.211L136.822 153.66L163.668 171.343C163.668 171.343 176.978 167.057 177.444 151.15C177.911 135.244 143.405 143.211 143.405 143.211Z" fill="#172800"/>
<path d="M244.482 228.503C240.425 240.668 214.829 244.878 214.829 244.878C214.829 244.878 213.109 234.74 212.331 230.209C212.307 230.072 212.276 229.938 212.24 229.807C211.361 226.437 206.86 223.435 201.348 216.804C201.348 216.804 195.783 210.274 193.906 207.29C184.91 192.962 191.545 185.299 191.545 185.299C132.233 145.534 149.575 117.858 149.575 117.858C149.575 117.858 161.132 114.191 175.646 123.39C190.161 132.589 204.678 169.085 206.553 174.074C208.427 179.063 207.488 187.173 207.488 187.173C208.091 192.942 211.295 202.328 214.465 210.525C217.787 219.119 221.067 226.399 221.262 226.831V226.853C227.037 229.506 242.911 225.849 242.911 225.849L244.482 228.503Z" fill="#00FFD1" fill-opacity="0.9"/>
<path d="M173.303 120.042C158.157 110.54 149.571 117.862 149.571 117.862C149.571 117.862 139.173 126.338 143.399 143.211C145.183 150.344 155.134 160.94 160.494 165.968L197.701 154.006C197.701 154.006 188.45 129.545 173.303 120.042Z" fill="#233E00"/>
<path d="M179.163 57.6708C179.163 57.6708 191.122 68.6342 189.992 81.5125C188.861 94.3909 183.942 109.431 184.614 116.826C185.285 124.221 186.691 130.978 179.163 129.576C173.576 128.535 153.621 123.503 146.467 121.984C145.956 121.877 145.473 121.665 145.049 121.361C144.625 121.057 144.269 120.668 144.004 120.219C143.739 119.769 143.57 119.269 143.51 118.751C143.449 118.233 143.497 117.708 143.652 117.21C145.918 109.863 155.616 95.91 153.506 87.376C150.691 76.0288 149.959 43.2029 167.062 51.6787L179.163 57.6708Z" fill="#321A0E"/>
<path d="M169.469 106.928C168.635 109.906 165.777 114.051 162.657 113.559C157.044 112.666 154.79 104.846 154.79 104.846C153.694 104.727 152.62 104.579 151.572 104.408C135.896 101.852 125.569 93.9045 121.792 89.5521C121.045 88.6889 120.629 87.5885 120.619 86.4475C120.609 85.3064 121.006 84.1989 121.738 83.3229C126.251 77.8975 136.124 66.1062 143.01 58.4061C152.197 48.1239 161.893 50.3684 161.893 50.3684C172.309 67.3962 138.459 85.481 138.459 85.481C141.417 86.532 148.917 90.9065 155.504 94.8871C156.596 95.5502 157.666 96.2013 158.681 96.8282C160.538 97.9635 162.221 99.0104 163.589 99.8644C165.879 101.275 170.197 104.327 169.469 106.928Z" fill="#00FFD1" fill-opacity="0.9"/>
<path d="M163.313 50.41C163.313 50.41 151.729 46.3249 137.182 61.2428L149.536 78.14L164.365 72.4614L167.571 56.386L163.313 50.41Z" fill="#321A0E"/>
<path d="M158.682 96.8102C158.682 96.8102 164.054 98.0841 167.567 96.8102C171.081 95.5362 169.8 100.891 163.125 101.741C156.449 102.591 158.682 96.8102 158.682 96.8102Z" fill="#00FFD1" fill-opacity="0.9"/>
<path d="M222.038 66.9802C224.419 59.3303 218.784 55.5687 218.506 61.2935C218.325 65.0351 217.137 67.4644 217.137 67.4644" fill="#00FFD1" fill-opacity="0.9"/>
<path d="M221.282 226.863L212.248 229.817C211.369 226.447 206.868 223.445 201.355 216.814L214.452 210.48L214.474 210.535L221.272 226.841L221.282 226.863Z" fill="white"/>
<path d="M103.408 193.32C96.2524 193.957 89.8407 194.962 86.2125 196.535L84.8047 184.216C85.8807 184.324 93.0345 182.283 99.8303 178.961L103.408 193.32Z" fill="white"/>
<path d="M86.2123 196.534C74.4468 201.642 68.206 215.036 68.1115 215.245L64.5195 216.817C61.3961 197.789 75.9109 179.544 75.9109 179.544C75.9109 179.544 76.9728 180.199 78.3746 181.017C80.6594 182.353 83.8411 184.125 84.8105 184.232L85.5023 190.316L86.2123 196.534Z" fill="#321A0E"/>
<path d="M78.3746 181.008C78.3746 181.008 67.6027 188.66 64.5195 216.808C61.3961 197.781 75.9109 179.535 75.9109 179.535C75.9109 179.535 76.9728 180.19 78.3746 181.008Z" fill="white"/>
<path d="M86.2121 196.533C74.4466 201.641 68.2059 215.036 68.1113 215.245C68.1113 215.245 69.7766 196.015 85.5042 190.296L86.2121 196.533Z" fill="#5D7244"/>
<path d="M80.9394 189.55C81.9361 188.554 81.9361 186.94 80.9394 185.944C79.9427 184.948 78.3268 184.948 77.3301 185.944C76.3334 186.94 76.3334 188.554 77.3301 189.55C78.3268 190.546 79.9427 190.546 80.9394 189.55Z" fill="#0B528C"/>
<path d="M244.482 228.503C240.425 240.668 214.829 244.878 214.829 244.878L214.408 242.408C213.849 239.113 212.866 233.333 212.331 230.219C212.307 230.082 212.276 229.948 212.24 229.817L216.241 228.509L221.269 226.863C227.043 229.516 242.917 225.858 242.917 225.858L244.482 228.503Z" fill="#321A0E"/>
<path d="M244.482 228.503C240.425 240.668 214.829 244.878 214.829 244.878L214.408 242.408C214.408 242.408 233.205 240.005 244.482 228.503Z" fill="white"/>
<path d="M242.923 225.858C230.437 236.106 216.24 228.511 216.24 228.511L221.268 226.865C227.048 229.51 242.923 225.858 242.923 225.858Z" fill="#5D7244"/>
<path d="M218.495 237.745C219.81 237.745 220.876 236.679 220.876 235.365C220.876 234.052 219.81 232.986 218.495 232.986C217.179 232.986 216.113 234.052 216.113 235.365C216.113 236.679 217.179 237.745 218.495 237.745Z" fill="white"/>
<path d="M154.79 104.843C155.585 99.4176 158.567 96.9038 158.68 96.8054C157.674 96.1784 156.594 95.5274 155.502 94.8643C153.244 97.5468 151.92 102.844 151.57 104.399L154.79 104.843Z" fill="#233E00"/>
<path d="M157.451 99.4156C157.359 99.7713 157.25 100.185 157.103 100.621C157.053 100.78 156.999 100.941 156.942 101.102C156.83 101.421 156.705 101.741 156.57 102.044C156.401 102.45 156.185 102.836 155.929 103.193C155.221 104.142 153.877 103.362 153.021 102.697C152.801 102.526 152.618 102.363 152.476 102.241C152.333 102.118 152.228 102.004 152.228 102.004C152.21 101.989 152.194 101.973 152.178 101.956C151.754 101.524 151.695 100.428 151.92 99.2971C151.961 99.0961 152.011 98.8831 152.071 98.6762C152.148 98.4061 152.244 98.1416 152.357 97.8845C152.787 96.8938 153.449 96.1162 154.27 96.0981C154.688 96.091 155.103 96.1718 155.488 96.3352C155.774 96.4562 156.044 96.6114 156.293 96.7974C156.483 96.9349 156.664 97.0853 156.834 97.2475C156.885 97.2959 156.934 97.3468 156.981 97.4002C157.215 97.6737 157.38 97.9997 157.462 98.3505C157.544 98.7013 157.54 99.0666 157.451 99.4156V99.4156Z" fill="#172800"/>
<path d="M155.967 97.3404L152.594 98.8394C152.656 98.6242 152.733 98.4134 152.823 98.2084L155.319 96.9727C155.549 97.0682 155.767 97.1917 155.967 97.3404Z" fill="white"/>
<path d="M156.48 100.772C156.389 101.028 156.291 101.283 156.182 101.524L153.352 102.044C153.177 101.908 153.029 101.779 152.918 101.681L156.48 100.772Z" fill="white"/>
<path d="M156.883 99.4848C156.811 99.6978 156.717 99.9449 156.608 100.2L152.68 101.004C152.342 100.747 152.296 100.092 152.479 99.4165L156.517 98.2852C156.694 98.4236 156.824 98.6129 156.889 98.8274C156.955 99.042 156.953 99.2714 156.883 99.4848V99.4848Z" fill="white"/>
<path d="M222.391 62.9932C222.391 62.9932 218.465 66.2082 221.184 69.1038C222.8 70.8237 225.032 71.835 227.392 71.917C227.392 71.917 218.237 69.7267 222.391 62.9932Z" fill="black" fill-opacity="0.9"/>
<path d="M138.69 63.3047L136.267 66.1098L149.536 78.1402L138.69 63.3047Z" fill="black" fill-opacity="0.9"/>
<path d="M197.719 154.006L169.502 167.967L165.349 164.413L197.719 154.006Z" fill="black" fill-opacity="0.9"/>
<path d="M162.751 170.742L138.852 158.955L139.952 155.726L162.751 170.742Z" fill="black" fill-opacity="0.9"/>
<path d="M181.114 52.9024C181.114 52.9024 173.649 51.3491 170.761 46C170.761 46 171.278 51.0014 180.012 55.6131L181.114 52.9024Z" fill="black" fill-opacity="0.9"/>
<path d="M187.896 28.6865C187.896 28.6865 189.589 33.5774 191.603 35.3618C193.706 37.2286 189.976 38.8401 189.976 38.8401C189.976 38.8401 190.724 41.0043 191.436 41.9668C191.515 42.0767 191.564 42.2053 191.578 42.3399C191.592 42.4745 191.571 42.6105 191.516 42.7344C191.412 42.9775 190.883 43.1162 190.511 43.2448C190.729 43.4027 190.901 43.617 191.007 43.8647C191.113 44.1124 191.15 44.3843 191.114 44.6514C190.965 45.5435 190.181 45.1376 189.531 46.2589C188.882 47.3801 176.09 41.3941 187.896 28.6865Z" fill="#00FFD1" fill-opacity="0.9"/>
<path d="M173.633 35.7432C173.633 35.7432 171.894 32.9401 169.553 34.6823C167.212 36.4244 170.657 41.0983 173.173 40.8009C173.173 40.8009 172.716 44.0723 169.896 44.7535C169.896 44.7535 161.731 41.1365 161.56 31.0271C161.389 20.9177 166.282 21.2533 166.282 21.2533C166.282 21.2533 167.26 14.0696 185.974 17.8112C185.974 17.8112 187.931 18.4823 189.122 17.1681C189.122 17.1681 190.972 23.0979 185.501 24.7899C185.501 24.7899 174.538 24.2694 172.668 25.5454C171.574 26.2909 173.126 27.2373 174.605 27.8964C175.142 28.138 175.562 28.5805 175.776 29.1287C175.99 29.6769 175.981 30.2871 175.749 30.8282L173.633 35.7432Z" fill="black" fill-opacity="0.9"/>
<path d="M32.9057 154.097C32.9057 154.097 19.6961 140.634 27.58 136.354C35.4639 132.073 32.9057 154.097 32.9057 154.097Z" fill="#233E00"/>
<path d="M30.5623 161.758C30.5623 161.758 17.7248 161.694 19.5006 154.705C21.2765 147.716 30.5623 161.758 30.5623 161.758Z" fill="#233E00"/>
<path d="M33.7638 175.553C33.7638 175.553 20.9243 175.489 22.7022 168.5C24.4801 161.511 33.7638 175.553 33.7638 175.553Z" fill="#233E00"/>
<path d="M38.9792 189.422C38.9792 189.422 26.1417 189.358 27.9176 182.369C29.6935 175.38 38.9792 189.422 38.9792 189.422Z" fill="#233E00"/>
<path d="M38.0342 160.185C38.0342 160.185 38.2635 144.879 44.0959 146.904C49.9284 148.93 38.0342 160.185 38.0342 160.185Z" fill="#233E00"/>
<path d="M41.2139 172.7C41.2139 172.7 41.4331 157.39 47.2736 159.417C53.1142 161.445 41.2139 172.7 41.2139 172.7Z" fill="#233E00"/>
<path d="M43.1748 187.734C43.1748 187.734 43.394 172.424 49.2345 174.452C55.0751 176.479 43.1748 187.734 43.1748 187.734Z" fill="#233E00"/>
<path d="M41.5515 203.168C41.5515 203.168 28.714 203.104 30.4899 196.115C32.2658 189.126 41.5515 203.168 41.5515 203.168Z" fill="#233E00"/>
<path d="M44.753 216.965C44.753 216.965 31.9135 216.901 33.6914 209.912C35.4693 202.923 44.753 216.965 44.753 216.965Z" fill="#233E00"/>
<path d="M49.9685 230.836C49.9685 230.836 37.131 230.772 38.9069 223.783C40.6828 216.794 49.9685 230.836 49.9685 230.836Z" fill="#233E00"/>
<path d="M49.0234 201.597C49.0234 201.597 49.2447 186.289 55.0832 188.317C60.9217 190.344 49.0234 201.597 49.0234 201.597Z" fill="#233E00"/>
<path d="M52.2031 214.111C52.2031 214.111 52.4223 198.804 58.2629 200.829C64.1034 202.855 52.2031 214.111 52.2031 214.111Z" fill="#233E00"/>
<path d="M54.1641 229.146C54.1641 229.146 54.3833 213.836 60.2238 215.864C66.0643 217.891 54.1641 229.146 54.1641 229.146Z" fill="#233E00"/>
<path d="M31.4767 146.188L30.7959 146.358L56.7237 249.642L57.4045 249.472L31.4767 146.188Z" fill="#233E00"/>
<path d="M36.1652 166.238L24.6934 158.23L25.1057 157.661L35.8294 165.128L41.0846 152.495L41.7423 152.738L36.1652 166.238Z" fill="#233E00"/>
<path d="M39.5642 179.618L27.6338 172.42L28.0079 171.827L39.1499 178.529L42.754 166.982L43.4277 167.179L39.5642 179.618Z" fill="#233E00"/>
<path d="M42.6874 191.888L33.7275 186.79L34.0694 186.177L42.1907 190.809L45.4709 180.352L46.1588 180.492L42.6874 191.888Z" fill="#233E00"/>
<path d="M46.2439 206.566L35.3613 199.969L35.7394 199.376L46.0307 205.599L52.3198 195.116L52.909 195.496L46.2439 206.566Z" fill="#233E00"/>
<path d="M49.455 219.161L40.3281 215.204L40.5815 214.549L49.1674 218.297L54.4669 209.654L55.0622 210.026L49.455 219.161Z" fill="#233E00"/>
<path d="M53.0357 233.487L45.1035 228.029L45.5158 227.46L52.7179 232.392L55.0489 226.57L55.7025 226.832L53.0357 233.487Z" fill="#233E00"/>
<path d="M276.677 256H31.8834C31.1524 256 30.4286 255.857 29.7532 255.577C29.0777 255.298 28.464 254.889 27.9471 254.372C27.4301 253.856 27.02 253.243 26.7402 252.568C26.4604 251.893 26.3164 251.17 26.3164 250.44V250.44C26.3164 249.71 26.4604 248.986 26.7402 248.311C27.0199 247.637 27.43 247.024 27.9469 246.507C28.4639 245.991 29.0776 245.581 29.753 245.301C30.4284 245.022 31.1523 244.878 31.8834 244.878H276.677C277.408 244.878 278.132 245.022 278.807 245.301C279.482 245.581 280.096 245.991 280.613 246.507C281.13 247.024 281.54 247.637 281.82 248.311C282.1 248.986 282.244 249.71 282.244 250.44V250.44C282.244 251.17 282.1 251.893 281.82 252.568C281.54 253.243 281.13 253.856 280.613 254.372C280.096 254.889 279.482 255.298 278.807 255.577C278.131 255.857 277.408 256 276.677 256V256Z" fill="white"/>
<path d="M161.55 217.937C169.167 217.937 175.342 211.767 175.342 204.157C175.342 196.546 169.167 190.376 161.55 190.376C153.932 190.376 147.757 196.546 147.757 204.157C147.757 211.767 153.932 217.937 161.55 217.937Z" fill="white"/>
<path d="M44.0034 115.168H103.79C105.007 115.168 105.275 113.458 104.114 113.089L94.1085 109.898C94.1085 109.898 112.171 92.2006 99.4039 88.1717C86.6368 84.1428 86.2044 98.2791 86.2044 98.2791C86.2044 98.2791 87.4353 74.9317 79.127 75.5847C70.8188 76.2378 74.8029 95.6789 74.8029 95.6789C74.8029 95.6789 66.3076 97.7064 65.3744 100.998C65.3744 100.998 68.1298 83.7872 57.9913 88.1717C47.8529 92.5563 54.2807 108.366 54.2807 108.366L43.571 113.131C43.3482 113.23 43.1663 113.403 43.0556 113.62C42.9448 113.837 42.912 114.086 42.9626 114.324C43.0132 114.563 43.1442 114.777 43.3336 114.93C43.523 115.084 43.7595 115.168 44.0034 115.168V115.168Z" fill="#CCEAFF"/>
<path d="M219.07 161.017H259.529C259.701 161.016 259.866 160.954 259.996 160.842C260.126 160.73 260.212 160.576 260.238 160.407C260.265 160.238 260.23 160.065 260.141 159.919C260.052 159.773 259.913 159.663 259.751 159.61L252.979 157.45C252.979 157.45 265.203 145.474 256.567 142.749C247.931 140.024 247.635 149.581 247.635 149.581C247.635 149.581 248.468 133.781 242.846 134.223C237.225 134.665 239.918 147.823 239.918 147.823C239.918 147.823 234.17 149.195 233.539 151.422C233.539 151.422 235.403 139.767 228.541 142.743C221.679 145.719 226.031 156.407 226.031 156.407L218.776 159.622C218.616 159.683 218.482 159.8 218.4 159.95C218.317 160.101 218.292 160.276 218.327 160.445C218.362 160.613 218.457 160.763 218.593 160.868C218.729 160.972 218.898 161.025 219.07 161.017Z" fill="#CCEAFF"/>
</g>
<defs>
<clipPath id="clip0_189_1865">
<rect width="306" height="256" fill="white"/>
</clipPath>
</defs>
</svg>
