<svg width="250" height="58" viewBox="0 0 250 58" fill="none" xmlns="http://www.w3.org/2000/svg">
<path d="M3.36598 11.7295L2.85156 12.2404L24.92 29.7149L25.4344 29.0507L3.36598 11.7295Z" fill="#1888E6"/>
<path d="M52.3384 30.9923L30.3214 30.9412V31.6565H52.3384V30.9923Z" fill="#1888E6"/>
<path d="M3.36598 11.7295L2.85156 12.2404L24.92 29.7149L25.4344 29.0507L3.36598 11.7295Z" stroke="#1888E6"/>
<path d="M52.3384 30.9923L30.3214 30.9412V31.6565H52.3384V30.9923Z" stroke="#1888E6"/>
<path d="M18.2846 20.2625L17.7702 19.8537L17.6673 19.7515L17.8217 19.5982L18.5418 19.0873L19.3649 18.5763L20.5995 17.861L21.8341 17.3501L22.8629 17.0435L23.5317 16.8391L24.4062 16.6858L25.6408 16.4814H27.2869H28.7273L29.9619 16.6858L31.3508 16.9924L32.3282 17.3501L33.2541 17.7077L34.283 18.2187L35.4661 18.934L36.5464 19.7515L37.4209 20.4158L37.9353 20.9778L38.4497 21.5909L39.067 22.4595L38.4497 22.8683L38.0897 22.4595L37.4209 21.7442L36.7007 20.9778L35.8777 20.2625L34.9517 19.5982L33.7171 18.8829L32.2253 18.2698L30.5792 17.7232L28.9331 17.3655L27.6985 17.3501H25.898L24.4576 17.5033L22.6057 18.0143L20.8567 18.6785L19.5707 19.4449L18.2846 20.2625Z" fill="#1888E6"/>
<path d="M14.6323 24.7588L14.015 24.2479L13.6549 24.9632L13.2948 25.7807L12.7804 27.1603L12.4203 28.6931L12.2145 29.8683L12.1631 31.0946L12.2145 32.3209L12.266 33.0873L12.3689 33.8537L12.6261 34.7223L12.7804 35.3866L12.9347 35.9997L13.2948 37.0216L13.6549 37.6858L14.1693 38.7588L14.6837 39.6274L15.0438 40.1384L15.8669 41.1603L17.4616 42.6931L18.7991 43.715L20.0337 44.4303L21.937 45.299L24.7148 45.9632L27.0812 46.1165L29.6018 45.9632L30.9907 45.7588L32.1739 45.299L33.4085 44.788L34.7974 44.0727L35.6205 43.5106L36.495 42.8464L37.4209 42.0289L37.9353 41.5179L38.6041 40.8026L39.1185 40.0873L38.6041 39.6785L38.0897 40.2917L37.2666 41.1603L36.3406 42.0289L35.1575 42.8464L33.7686 43.715L31.8652 44.5836L30.7849 44.9413L29.9619 45.1457L28.8816 45.299L27.184 45.4522L25.3836 45.299L24.2519 45.1457L22.4514 44.5836L20.3937 43.715L19.3649 43.0508L18.1303 42.1822L17.1015 41.1603L16.227 40.2917L15.1981 38.7588L14.478 37.5325L13.8092 35.9997L13.2948 34.2625L13.089 33.2406L12.9862 32.3209L12.9347 31.3501V30.3793L13.089 29.4085L13.2948 28.3866L13.6549 27.1603L14.1179 25.7807L14.6323 24.7588Z" fill="#1888E6"/>
<path d="M18.2846 20.2625L17.7702 19.8537L17.6673 19.7515L17.8217 19.5982L18.5418 19.0873L19.3649 18.5763L20.5995 17.861L21.8341 17.3501L22.8629 17.0435L23.5317 16.8391L24.4062 16.6858L25.6408 16.4814H27.2869H28.7273L29.9619 16.6858L31.3508 16.9924L32.3282 17.3501L33.2541 17.7077L34.283 18.2187L35.4661 18.934L36.5464 19.7515L37.4209 20.4158L37.9353 20.9778L38.4497 21.5909L39.067 22.4595L38.4497 22.8683L38.0897 22.4595L37.4209 21.7442L36.7007 20.9778L35.8777 20.2625L34.9517 19.5982L33.7171 18.8829L32.2253 18.2698L30.5792 17.7232L28.9331 17.3655L27.6985 17.3501H25.898L24.4576 17.5033L22.6057 18.0143L20.8567 18.6785L19.5707 19.4449L18.2846 20.2625Z" stroke="#1888E6"/>
<path d="M14.6323 24.7588L14.015 24.2479L13.6549 24.9632L13.2948 25.7807L12.7804 27.1603L12.4203 28.6931L12.2145 29.8683L12.1631 31.0946L12.2145 32.3209L12.266 33.0873L12.3689 33.8537L12.6261 34.7223L12.7804 35.3866L12.9347 35.9997L13.2948 37.0216L13.6549 37.6858L14.1693 38.7588L14.6837 39.6274L15.0438 40.1384L15.8669 41.1603L17.4616 42.6931L18.7991 43.715L20.0337 44.4303L21.937 45.299L24.7148 45.9632L27.0812 46.1165L29.6018 45.9632L30.9907 45.7588L32.1739 45.299L33.4085 44.788L34.7974 44.0727L35.6205 43.5106L36.495 42.8464L37.4209 42.0289L37.9353 41.5179L38.6041 40.8026L39.1185 40.0873L38.6041 39.6785L38.0897 40.2917L37.2666 41.1603L36.3406 42.0289L35.1575 42.8464L33.7686 43.715L31.8652 44.5836L30.7849 44.9413L29.9619 45.1457L28.8816 45.299L27.184 45.4522L25.3836 45.299L24.2519 45.1457L22.4514 44.5836L20.3937 43.715L19.3649 43.0508L18.1303 42.1822L17.1015 41.1603L16.227 40.2917L15.1981 38.7588L14.478 37.5325L13.8092 35.9997L13.2948 34.2625L13.089 33.2406L12.9862 32.3209L12.9347 31.3501V30.3793L13.089 29.4085L13.2948 28.3866L13.6549 27.1603L14.1179 25.7807L14.6323 24.7588Z" stroke="#1888E6"/>
<path d="M17.1008 19.3942L8.71585 12.9562L9.79612 11.9854L11.0307 11.0146L12.3168 10.2482L11.185 8.86861L9.38459 10.146L8.56152 9.07299L14.1172 4.93431L14.9917 6.10949L13.1398 7.54015L14.4259 9.07299L15.8662 8.30657L17.5124 7.69343L19.3643 7.08029L21.2676 6.67153L22.9652 6.36496L24.6113 6.31387V3.86131H21.9878V1H32.3275V3.86131H29.8069L29.8584 6.36496L31.6588 6.51825L33.4593 7.0292L35.2597 7.48905L36.9059 8.15328L38.552 8.91971L40.0438 9.78832L41.4327 10.6058L42.6159 11.5255L44.262 12.9051L45.5995 14.2847L46.7312 15.5109L47.6057 16.8394L39.7351 22.0511L37.5746 19.7518L35.877 18.4234L33.8194 17.1971L32.0189 16.5328L29.8069 15.9197L27.2863 15.7664L25.1257 15.8686L23.3767 16.2263L21.5248 16.7883L19.8787 17.5036L18.3354 18.4234L17.1008 19.3942Z" fill="white" stroke="white"/>
<path d="M13.4489 23.7885L5.01245 17.3506L4.0865 18.7301L3.21199 20.4674L2.38892 22.6645L1.66874 24.9126L1.10288 28.1827L1 30.7374L1.10288 33.19L1.36009 35.4382L1.77162 37.5842L2.59469 40.0367L3.57208 42.3871L4.80668 44.6353L6.14416 46.6791L7.17299 48.0075L8.40759 49.2338L10.1052 50.8177L11.9056 52.1973L13.346 53.1681L14.9921 54.0367L17.6156 55.263L19.8276 55.9272L21.9882 56.4893L23.8915 56.7958L25.7949 57.0002H28.2126H30.3217L32.8938 56.6936L34.437 56.336L35.6716 55.9783L37.3692 55.4674L39.324 54.5988L40.7129 53.9345L41.9475 53.2192L42.9764 52.555L44.7254 51.1754L45.5999 50.3068L46.1657 49.7958L46.6287 49.2338L47.246 48.6718L47.8119 48.0075L48.3263 47.3433L48.7378 46.5769L39.787 40.4455L39.4783 40.8031L38.4495 41.9783L37.575 42.898L36.5462 43.7155L35.0029 44.7885L32.7395 45.8104L30.476 46.5258L28.727 46.7301L26.9266 46.8323L24.7146 46.6791L23.8401 46.5258L22.5026 46.1681L21.4738 45.8104L20.2392 45.2995L19.3647 44.7885L17.9757 43.9199L16.381 42.5404L15.1979 41.1608L13.809 39.2703L12.7801 37.3287L11.9056 34.9272L11.597 32.2192L11.7513 29.5623L11.9056 28.3871L12.42 26.4966L13.4489 23.7885Z" fill="white" stroke="white"/>
<ellipse cx="27.1321" cy="31.3502" rx="3.29226" ry="3.27007" fill="#1888E6"/>
<path d="M58.8721 23.5842V7.69367L100.54 7.64258V19.8543H72.8127L79.0886 26.19H100.54V38.555H73.9445L58.8721 23.5842Z" fill="white"/>
<path d="M71.3724 41.1097L59.0264 29.0002V56.8981L98.8422 56.9471L100.54 56.9492V44.5331H100.334H71.3724V41.1097Z" fill="white"/>
<path d="M58.8721 23.5842V7.69367L100.54 7.64258V19.8543H72.8127L79.0886 26.19H100.54V38.555H73.9445L58.8721 23.5842Z" stroke="white"/>
<path d="M71.3724 41.1097L59.0264 29.0002V56.8981L98.8422 56.9471L100.54 56.9492V44.5331H100.334H71.3724V41.1097Z" stroke="white"/>
<path d="M149.461 23.5842V7.69367L191.129 7.64258V19.8543H163.402L169.677 26.19H191.129V38.555H164.533L149.461 23.5842Z" fill="white"/>
<path d="M161.961 41.1097L149.615 29.0002V56.8981L189.431 56.9471L191.129 56.9492V44.5331H190.923H161.961V41.1097Z" fill="white"/>
<path d="M149.461 23.5842V7.69367L191.129 7.64258V19.8543H163.402L169.677 26.19H191.129V38.555H164.533L149.461 23.5842Z" stroke="white"/>
<path d="M161.961 41.1097L149.615 29.0002V56.8981L189.431 56.9471L191.129 56.9492V44.5331H190.923H161.961V41.1097Z" stroke="white"/>
<path d="M120.139 7.54004H107.741L107.844 56.8466H134.388L121.939 44.6349H120.139V7.54004Z" fill="white"/>
<path d="M142.361 44.686H127.546L139.944 56.9488H142.361V44.686Z" fill="white"/>
<path d="M120.139 7.54004H107.741L107.844 56.8466H134.388L121.939 44.6349H120.139V7.54004Z" stroke="white"/>
<path d="M142.361 44.686H127.546L139.944 56.9488H142.361V44.686Z" stroke="white"/>
<path fill-rule="evenodd" clip-rule="evenodd" d="M229.658 56.9492C236.064 56.9322 248.834 56.9086 248.999 56.9484C249 56.9492 249 56.9494 249 56.9492C249 56.9489 249 56.9486 248.999 56.9484C248.836 56.8286 236.373 44.5608 230.121 38.4017H232.282L233.516 38.2484L234.237 38.0951L234.803 37.9419L235.471 37.7375L235.986 37.5331L236.706 37.2265L237.426 36.8689L238.043 36.5112L238.918 36.0002L239.638 35.4893L240.358 34.9783L241.027 34.4674L241.541 33.9564L241.901 33.5988L242.262 33.0878L242.776 32.4236L243.29 31.7083L243.65 31.1973L244.011 30.6864L244.165 30.4309L244.319 30.0732L244.525 29.6134L244.679 29.1535L245.039 28.1827L245.399 27.1097L245.554 26.19L245.708 25.1681L245.914 23.2776V22.1024L245.811 20.1097L245.348 18.0659L244.834 16.7375L244.319 15.5112L243.805 14.6426L243.136 13.6207L242.416 12.7521L241.901 12.0878L241.181 11.3725L240.358 10.7083L239.844 10.3506L238.969 9.78856L238.095 9.27761L237.015 8.76667L236.14 8.4601L235.214 8.15353L234.751 8.05134L234.288 7.94915L233.414 7.79586L232.025 7.64258H198.228V25.628L229.658 56.9492ZM198.433 56.7959H210.751V43.2557L198.433 31.1462V56.7959ZM211.602 20.4163L217.261 26.2922H229.041L230.636 25.8835L231.819 25.1681L232.693 24.4017L233.054 23.2776L233.208 21.8981V21.1827L233.054 20.8251L232.899 20.4163H211.602Z" fill="white"/>
<path d="M229.658 56.9492L229.305 57.3033L229.452 57.4497L229.66 57.4492L229.658 56.9492ZM230.121 38.4017V37.9017H228.901L229.77 38.7579L230.121 38.4017ZM232.282 38.4017V38.9017H232.313L232.343 38.8979L232.282 38.4017ZM233.516 38.2484L233.578 38.7446L233.599 38.742L233.621 38.7375L233.516 38.2484ZM234.237 38.0951L234.341 38.5842L234.354 38.5813L234.367 38.5777L234.237 38.0951ZM234.803 37.9419L234.933 38.4245L234.941 38.4224L234.949 38.42L234.803 37.9419ZM235.471 37.7375L235.617 38.2156L235.637 38.2097L235.656 38.2021L235.471 37.7375ZM235.986 37.5331L236.17 37.9979L236.182 37.9931L235.986 37.5331ZM236.706 37.2265L236.902 37.6866L236.915 37.6808L236.928 37.6743L236.706 37.2265ZM237.426 36.8689L237.648 37.3167L237.663 37.3095L237.677 37.3015L237.426 36.8689ZM238.043 36.5112L238.294 36.9438L238.296 36.9429L238.043 36.5112ZM238.918 36.0002L239.17 36.432L239.189 36.4208L239.207 36.408L238.918 36.0002ZM239.638 35.4893L239.927 35.8971L239.638 35.4893ZM240.358 34.9783L240.648 35.3861L240.655 35.381L240.662 35.3757L240.358 34.9783ZM241.027 34.4674L241.331 34.8647L241.356 34.845L241.379 34.8221L241.027 34.4674ZM241.541 33.9564L241.189 33.6017V33.6017L241.541 33.9564ZM241.901 33.5988L242.254 33.9535L242.285 33.9226L242.31 33.8868L241.901 33.5988ZM242.262 33.0878L241.866 32.7817L241.859 32.7906L241.853 32.7998L242.262 33.0878ZM242.776 32.4236L243.171 32.7298L243.177 32.7227L243.182 32.7155L242.776 32.4236ZM243.29 31.7083L243.696 32.0002L243.699 31.9963L243.29 31.7083ZM243.65 31.1973L243.242 30.9093V30.9093L243.65 31.1973ZM244.011 30.6864L244.419 30.9744L244.429 30.96L244.439 30.9449L244.011 30.6864ZM244.165 30.4309L244.593 30.6894L244.61 30.6603L244.624 30.629L244.165 30.4309ZM244.319 30.0732L243.863 29.869L243.86 29.8752L244.319 30.0732ZM244.525 29.6134L244.981 29.8176L244.991 29.7955L244.999 29.7725L244.525 29.6134ZM244.679 29.1535L244.211 28.9796L244.208 28.987L244.205 28.9944L244.679 29.1535ZM245.039 28.1827L245.508 28.3566L245.511 28.3492L245.513 28.3418L245.039 28.1827ZM245.399 27.1097L245.874 27.2688L245.886 27.2314L245.893 27.1925L245.399 27.1097ZM245.554 26.19L246.047 26.2728L246.048 26.2647L245.554 26.19ZM245.708 25.1681L246.203 25.2428L246.204 25.2325L246.205 25.2222L245.708 25.1681ZM245.914 23.2776L246.411 23.3317L246.414 23.3047V23.2776H245.914ZM245.914 22.1024H246.414V22.0895L246.413 22.0767L245.914 22.1024ZM245.811 20.1097L246.31 20.084L246.308 20.0411L246.299 19.9993L245.811 20.1097ZM245.348 18.0659L245.836 17.9555L245.828 17.9196L245.814 17.8854L245.348 18.0659ZM244.834 16.7375L245.3 16.5569L245.295 16.5441L244.834 16.7375ZM244.319 15.5112L244.78 15.3178L244.767 15.286L244.749 15.2564L244.319 15.5112ZM243.805 14.6426L244.235 14.3878L244.229 14.3782L244.223 14.3688L243.805 14.6426ZM243.136 13.6207L243.554 13.3469L243.539 13.3233L243.521 13.3015L243.136 13.6207ZM242.416 12.7521L242.021 13.0582L242.026 13.0648L242.031 13.0712L242.416 12.7521ZM241.901 12.0878L242.297 11.7817L242.277 11.756L242.254 11.7331L241.901 12.0878ZM241.181 11.3725L241.534 11.0178L241.515 10.9996L241.495 10.9834L241.181 11.3725ZM240.358 10.7083L240.672 10.3192L240.658 10.308L240.644 10.2977L240.358 10.7083ZM239.844 10.3506L240.129 9.94008L240.122 9.9349L240.114 9.92999L239.844 10.3506ZM238.969 9.78856L239.24 9.36794L239.231 9.36221L239.222 9.35685L238.969 9.78856ZM238.095 9.27761L238.347 8.8459L238.328 8.83493L238.309 8.82562L238.095 9.27761ZM237.015 8.76667L237.228 8.31467L237.205 8.30348L237.18 8.29482L237.015 8.76667ZM236.14 8.4601L236.305 7.98818L236.297 7.98544L236.14 8.4601ZM235.214 8.15353L235.371 7.67887L235.347 7.67081L235.322 7.66528L235.214 8.15353ZM234.751 8.05134L234.859 7.56309V7.56309L234.751 8.05134ZM234.288 7.94915L234.396 7.4609L234.385 7.45854L234.374 7.45666L234.288 7.94915ZM233.414 7.79586L233.5 7.30337L233.484 7.30063L233.468 7.29888L233.414 7.79586ZM232.025 7.64258L232.08 7.1456L232.052 7.14258H232.025V7.64258ZM198.228 7.64258V7.14258H197.728V7.64258H198.228ZM198.228 25.628H197.728V25.8356L197.875 25.9822L198.228 25.628ZM210.751 56.7959V57.2959H211.251V56.7959H210.751ZM198.433 56.7959H197.933V57.2959H198.433V56.7959ZM210.751 43.2557H211.251V43.0461L211.101 42.8992L210.751 43.2557ZM198.433 31.1462L198.784 30.7897L197.933 29.9535L197.933 31.1462H198.433ZM217.261 26.2922L216.901 26.639L217.048 26.7922H217.261V26.2922ZM211.602 20.4163V19.9163H210.427L211.242 20.7631L211.602 20.4163ZM229.041 26.2922V26.7922H229.104L229.165 26.7766L229.041 26.2922ZM230.636 25.8835L230.76 26.3678L230.831 26.3495L230.894 26.3113L230.636 25.8835ZM231.819 25.1681L232.078 25.596L232.115 25.5732L232.148 25.5442L231.819 25.1681ZM232.693 24.4017L233.023 24.7777L233.127 24.6863L233.17 24.5542L232.693 24.4017ZM233.054 23.2776L233.53 23.4301L233.545 23.3827L233.55 23.3332L233.054 23.2776ZM233.208 21.8981L233.705 21.9536L233.708 21.9259V21.8981H233.208ZM233.208 21.1827H233.708V21.0795L233.667 20.9846L233.208 21.1827ZM233.054 20.8251L232.586 21.0017L232.59 21.0125L232.594 21.0231L233.054 20.8251ZM232.899 20.4163L233.367 20.2397L233.245 19.9163H232.899V20.4163ZM249.116 56.4624C249.081 56.4539 249.052 56.4509 249.046 56.4503C249.034 56.4491 249.024 56.4482 249.016 56.4477C249 56.4466 248.983 56.4458 248.966 56.4452C248.932 56.4439 248.888 56.4428 248.835 56.4417C248.728 56.4397 248.577 56.4379 248.387 56.4363C248.008 56.4332 247.47 56.4309 246.809 56.4293C245.488 56.4262 243.676 56.426 241.669 56.4275C237.654 56.4305 232.86 56.4407 229.657 56.4492L229.66 57.4492C232.862 57.4407 237.656 57.4305 241.669 57.4275C243.676 57.426 245.488 57.4262 246.807 57.4293C247.467 57.4309 248.003 57.4332 248.379 57.4363C248.567 57.4378 248.714 57.4396 248.815 57.4415C248.866 57.4425 248.903 57.4435 248.928 57.4445C248.94 57.4449 248.946 57.4453 248.948 57.4454C248.967 57.4467 248.928 57.4456 248.881 57.4343L249.116 56.4624ZM248.703 57.3511C248.705 57.3528 248.736 57.3768 248.78 57.3983C248.784 57.4003 248.877 57.4504 249.005 57.4492C249.082 57.4485 249.23 57.4276 249.355 57.3014C249.481 57.1751 249.5 57.0266 249.5 56.9492H248.5C248.5 56.8717 248.52 56.7234 248.645 56.5971C248.771 56.4709 248.919 56.45 248.996 56.4493C249.123 56.4481 249.216 56.4981 249.22 56.5C249.263 56.5213 249.294 56.5447 249.295 56.5456L248.703 57.3511ZM249.5 56.9492C249.5 56.7666 249.405 56.6458 249.35 56.5918C249.296 56.5386 249.242 56.5107 249.219 56.4993C249.17 56.4753 249.128 56.4652 249.117 56.4625L248.881 57.4342C248.871 57.4318 248.83 57.4219 248.781 57.3982C248.758 57.3869 248.705 57.3591 248.65 57.3062C248.595 57.2522 248.5 57.1316 248.5 56.9492H249.5ZM229.77 38.7579C232.896 41.8375 237.575 46.4443 241.493 50.2963C243.452 52.2223 245.221 53.9597 246.51 55.2231C247.154 55.8548 247.68 56.3684 248.049 56.7279C248.233 56.9075 248.379 57.0493 248.482 57.1482C248.533 57.1976 248.575 57.2372 248.605 57.2659C248.619 57.2791 248.666 57.324 248.702 57.3508L249.296 56.546C249.322 56.5653 249.334 56.579 249.291 56.5384C249.265 56.5132 249.226 56.4764 249.176 56.4278C249.075 56.3309 248.93 56.1908 248.746 56.0115C248.378 55.6531 247.854 55.1404 247.21 54.5089C245.921 53.246 244.153 51.5091 242.194 49.5832C238.277 45.7316 233.598 41.125 230.472 38.0455L229.77 38.7579ZM232.282 37.9017H230.121V38.9017H232.282V37.9017ZM233.455 37.7522L232.22 37.9055L232.343 38.8979L233.578 38.7446L233.455 37.7522ZM234.133 37.6061L233.412 37.7594L233.621 38.7375L234.341 38.5842L234.133 37.6061ZM234.672 37.4592L234.106 37.6125L234.367 38.5777L234.933 38.4245L234.672 37.4592ZM235.325 37.2593L234.656 37.4637L234.949 38.42L235.617 38.2156L235.325 37.2593ZM235.801 37.0684L235.287 37.2728L235.656 38.2021L236.17 37.9978L235.801 37.0684ZM236.51 36.7665L235.79 37.073L236.182 37.9931L236.902 37.6866L236.51 36.7665ZM237.204 36.421L236.483 36.7787L236.928 37.6743L237.648 37.3167L237.204 36.421ZM237.793 36.0786L237.175 36.4362L237.677 37.3015L238.294 36.9438L237.793 36.0786ZM238.666 35.5685L237.791 36.0795L238.296 36.9429L239.17 36.432L238.666 35.5685ZM239.349 35.0815L238.629 35.5925L239.207 36.408L239.927 35.8971L239.349 35.0815ZM240.069 34.5706L239.349 35.0815L239.927 35.8971L240.648 35.3861L240.069 34.5706ZM240.723 34.0701L240.055 34.581L240.662 35.3757L241.331 34.8647L240.723 34.0701ZM241.189 33.6017L240.675 34.1127L241.379 34.8221L241.894 34.3112L241.189 33.6017ZM241.549 33.244L241.189 33.6017L241.894 34.3112L242.254 33.9535L241.549 33.244ZM241.853 32.7998L241.493 33.3108L242.31 33.8868L242.67 33.3759L241.853 32.7998ZM242.381 32.1175L241.866 32.7817L242.657 33.394L243.171 32.7298L242.381 32.1175ZM242.884 31.4164L242.37 32.1317L243.182 32.7155L243.696 32.0002L242.884 31.4164ZM243.242 30.9093L242.882 31.4202L243.699 31.9963L244.059 31.4854L243.242 30.9093ZM243.602 30.3983L243.242 30.9093L244.059 31.4854L244.419 30.9744L243.602 30.3983ZM243.737 30.1724L243.583 30.4278L244.439 30.9449L244.593 30.6894L243.737 30.1724ZM243.86 29.8752L243.706 30.2328L244.624 30.629L244.778 30.2713L243.86 29.8752ZM244.069 29.4092L243.863 29.869L244.776 30.2775L244.981 29.8176L244.069 29.4092ZM244.205 28.9944L244.051 29.4543L244.999 29.7725L245.153 29.3126L244.205 28.9944ZM244.571 28.0088L244.211 28.9796L245.148 29.3274L245.508 28.3566L244.571 28.0088ZM244.925 26.9507L244.565 28.0236L245.513 28.3418L245.874 27.2688L244.925 26.9507ZM245.061 26.1073L244.906 27.027L245.893 27.1925L246.047 26.2728L245.061 26.1073ZM245.214 25.0935L245.059 26.1154L246.048 26.2647L246.203 25.2428L245.214 25.0935ZM245.417 23.2235L245.211 25.114L246.205 25.2222L246.411 23.3317L245.417 23.2235ZM245.414 22.1024V23.2776H246.414V22.1024H245.414ZM245.312 20.1355L245.415 22.1282L246.413 22.0767L246.31 20.084L245.312 20.1355ZM244.86 18.1764L245.323 20.2202L246.299 19.9993L245.836 17.9555L244.86 18.1764ZM244.367 16.918L244.882 18.2465L245.814 17.8854L245.3 16.5569L244.367 16.918ZM243.858 15.7046L244.373 16.9309L245.295 16.5441L244.78 15.3178L243.858 15.7046ZM243.375 14.8974L243.889 15.766L244.749 15.2564L244.235 14.3878L243.375 14.8974ZM242.718 13.8945L243.386 14.9164L244.223 14.3688L243.554 13.3469L242.718 13.8945ZM242.031 13.0712L242.751 13.9398L243.521 13.3015L242.801 12.4329L242.031 13.0712ZM241.506 12.394L242.021 13.0582L242.811 12.4459L242.297 11.7817L241.506 12.394ZM240.829 11.7273L241.549 12.4426L242.254 11.7331L241.534 11.0178L240.829 11.7273ZM240.044 11.0974L240.867 11.7616L241.495 10.9834L240.672 10.3192L240.044 11.0974ZM239.558 10.7611L240.073 11.1188L240.644 10.2977L240.129 9.94008L239.558 10.7611ZM238.699 10.2092L239.573 10.7712L240.114 9.92999L239.24 9.36794L238.699 10.2092ZM237.843 9.70933L238.717 10.2203L239.222 9.35685L238.347 8.8459L237.843 9.70933ZM236.801 9.21866L237.881 9.72961L238.309 8.82562L237.228 8.31467L236.801 9.21866ZM235.975 8.93194L236.849 9.23851L237.18 8.29482L236.305 7.98825L235.975 8.93194ZM235.057 8.62819L235.983 8.93476L236.297 7.98544L235.371 7.67887L235.057 8.62819ZM234.643 8.53959L235.106 8.64177L235.322 7.66528L234.859 7.56309L234.643 8.53959ZM234.18 8.4374L234.643 8.53959L234.859 7.56309L234.396 7.4609L234.18 8.4374ZM233.327 8.28835L234.202 8.44164L234.374 7.45666L233.5 7.30337L233.327 8.28835ZM231.97 8.13956L233.359 8.29285L233.468 7.29888L232.08 7.1456L231.97 8.13956ZM198.228 8.14258H232.025V7.14258H198.228V8.14258ZM198.728 25.628V7.64258H197.728V25.628H198.728ZM230.011 56.595L198.58 25.2738L197.875 25.9822L229.305 57.3033L230.011 56.595ZM210.751 56.2959H198.433V57.2959H210.751V56.2959ZM210.251 43.2557V56.7959H211.251V43.2557H210.251ZM198.083 31.5028L210.4 43.6123L211.101 42.8992L198.784 30.7897L198.083 31.5028ZM198.933 56.7959V31.1462H197.933V56.7959H198.933ZM217.621 25.9454L211.963 20.0695L211.242 20.7631L216.901 26.639L217.621 25.9454ZM229.041 25.7922H217.261V26.7922H229.041V25.7922ZM230.512 25.3991L228.917 25.8079L229.165 26.7766L230.76 26.3678L230.512 25.3991ZM231.56 24.7402L230.377 25.4556L230.894 26.3113L232.078 25.596L231.56 24.7402ZM232.364 24.0257L231.489 24.7921L232.148 25.5442L233.023 24.7777L232.364 24.0257ZM232.577 23.1251L232.217 24.2492L233.17 24.5542L233.53 23.4301L232.577 23.1251ZM232.711 21.8425L232.557 23.222L233.55 23.3332L233.705 21.9536L232.711 21.8425ZM232.708 21.1827V21.8981H233.708V21.1827H232.708ZM232.594 21.0231L232.749 21.3808L233.667 20.9846L233.513 20.627L232.594 21.0231ZM232.431 20.5929L232.586 21.0017L233.521 20.6485L233.367 20.2397L232.431 20.5929ZM211.602 20.9163H232.899V19.9163H211.602V20.9163Z" fill="white"/>
</svg>
