<svg width="147" height="35" viewBox="0 0 147 35" fill="none" xmlns="http://www.w3.org/2000/svg">
<path d="M2.3828 7.323L2.08203 7.62409L14.985 17.9215L15.2857 17.5301L2.3828 7.323Z" fill="#1888E6"/>
<path d="M31.0159 18.6743L18.143 18.6442V19.0657H31.0159V18.6743Z" fill="#1888E6"/>
<path d="M2.3828 7.323L2.08203 7.62409L14.985 17.9215L15.2857 17.5301L2.3828 7.323Z" stroke="#1888E6"/>
<path d="M31.0159 18.6743L18.143 18.6442V19.0657H31.0159V18.6743Z" stroke="#1888E6"/>
<path d="M11.1065 12.3514L10.8057 12.1105L10.7456 12.0503L10.8358 11.96L11.2569 11.6589L11.7381 11.3578L12.4599 10.9362L13.1818 10.6352L13.7833 10.4545L14.1743 10.3341L14.6856 10.2437L15.4075 10.1233H16.3699H17.2121L17.9339 10.2437L18.746 10.4244L19.3174 10.6352L19.8588 10.8459L20.4603 11.147L21.1521 11.5685L21.7837 12.0503L22.295 12.4417L22.5958 12.7729L22.8966 13.1342L23.2575 13.6461L22.8966 13.887L22.686 13.6461L22.295 13.2246L21.874 12.7729L21.3927 12.3514L20.8513 11.96L20.1295 11.5384L19.2573 11.1771L18.2948 10.855L17.3324 10.6443L16.6105 10.6352H15.5578L14.7157 10.7255L13.6329 11.0266L12.6103 11.418L11.8584 11.8696L11.1065 12.3514Z" fill="#1888E6"/>
<path d="M8.97103 15.001L8.61011 14.6999L8.39957 15.1215L8.18903 15.6032L7.88826 16.4162L7.67773 17.3195L7.55742 18.012L7.52734 18.7346L7.55742 19.4572L7.5875 19.9089L7.64765 20.3605L7.79803 20.8724L7.88826 21.2638L7.9785 21.6251L8.18903 22.2273L8.39957 22.6187L8.70034 23.251L9.0011 23.7629L9.21164 24.064L9.69287 24.6662L10.6252 25.5695L11.4072 26.1716L12.1291 26.5932L13.2419 27.105L14.8661 27.4965L16.2496 27.5868L17.7234 27.4965L18.5354 27.376L19.2272 27.105L19.949 26.8039L20.7611 26.3824L21.2423 26.0512L21.7536 25.6598L22.295 25.178L22.5958 24.8769L22.9868 24.4554L23.2876 24.0339L22.9868 23.793L22.686 24.1543L22.2048 24.6662L21.6634 25.178L20.9717 25.6598L20.1596 26.1716L19.0467 26.6835L18.4151 26.8943L17.9339 27.0147L17.3023 27.105L16.3098 27.1954L15.2571 27.105L14.5954 27.0147L13.5427 26.6835L12.3396 26.1716L11.7381 25.7802L11.0162 25.2684L10.4147 24.6662L9.90341 24.1543L9.30187 23.251L8.8808 22.5284L8.4898 21.6251L8.18903 20.6014L8.06873 19.9992L8.00857 19.4572L7.9785 18.8852V18.3131L8.06873 17.741L8.18903 17.1388L8.39957 16.4162L8.67026 15.6032L8.97103 15.001Z" fill="#1888E6"/>
<path d="M11.1065 12.3514L10.8057 12.1105L10.7456 12.0503L10.8358 11.96L11.2569 11.6589L11.7381 11.3578L12.4599 10.9362L13.1818 10.6352L13.7833 10.4545L14.1743 10.3341L14.6856 10.2437L15.4075 10.1233H16.3699H17.2121L17.9339 10.2437L18.746 10.4244L19.3174 10.6352L19.8588 10.8459L20.4603 11.147L21.1521 11.5685L21.7837 12.0503L22.295 12.4417L22.5958 12.7729L22.8966 13.1342L23.2575 13.6461L22.8966 13.887L22.686 13.6461L22.295 13.2246L21.874 12.7729L21.3927 12.3514L20.8513 11.96L20.1295 11.5384L19.2573 11.1771L18.2948 10.855L17.3324 10.6443L16.6105 10.6352H15.5578L14.7157 10.7255L13.6329 11.0266L12.6103 11.418L11.8584 11.8696L11.1065 12.3514Z" stroke="#1888E6"/>
<path d="M8.97103 15.001L8.61011 14.6999L8.39957 15.1215L8.18903 15.6032L7.88826 16.4162L7.67773 17.3195L7.55742 18.012L7.52734 18.7346L7.55742 19.4572L7.5875 19.9089L7.64765 20.3605L7.79803 20.8724L7.88826 21.2638L7.9785 21.6251L8.18903 22.2273L8.39957 22.6187L8.70034 23.251L9.0011 23.7629L9.21164 24.064L9.69287 24.6662L10.6252 25.5695L11.4072 26.1716L12.1291 26.5932L13.2419 27.105L14.8661 27.4965L16.2496 27.5868L17.7234 27.4965L18.5354 27.376L19.2272 27.105L19.949 26.8039L20.7611 26.3824L21.2423 26.0512L21.7536 25.6598L22.295 25.178L22.5958 24.8769L22.9868 24.4554L23.2876 24.0339L22.9868 23.793L22.686 24.1543L22.2048 24.6662L21.6634 25.178L20.9717 25.6598L20.1596 26.1716L19.0467 26.6835L18.4151 26.8943L17.9339 27.0147L17.3023 27.105L16.3098 27.1954L15.2571 27.105L14.5954 27.0147L13.5427 26.6835L12.3396 26.1716L11.7381 25.7802L11.0162 25.2684L10.4147 24.6662L9.90341 24.1543L9.30187 23.251L8.8808 22.5284L8.4898 21.6251L8.18903 20.6014L8.06873 19.9992L8.00857 19.4572L7.9785 18.8852V18.3131L8.06873 17.741L8.18903 17.1388L8.39957 16.4162L8.67026 15.6032L8.97103 15.001Z" stroke="#1888E6"/>
<path d="M10.4146 11.8394L5.51211 8.04562L6.14372 7.47354L6.86556 6.90146L7.61748 6.44982L6.95579 5.63686L5.9031 6.3896L5.42188 5.7573L8.67016 3.31843L9.18147 4.01095L8.09871 4.85401L8.85062 5.7573L9.69277 5.30566L10.6552 4.94434L11.738 4.58303L12.8508 4.34215L13.8434 4.1615L14.8058 4.13139V2.68613H13.2719V1H19.3173V2.68613H17.8436L17.8736 4.1615L18.9263 4.25182L19.979 4.55292L21.0317 4.82391L21.9942 5.21533L22.9566 5.66697L23.8288 6.17883L24.6409 6.66058L25.3327 7.20255L26.2951 8.01551L27.0771 8.82847L27.7388 9.5511L28.2501 10.3339L23.6484 13.4051L22.3852 12.0502L21.3926 11.2673L20.1896 10.5447L19.1369 10.1533L17.8436 9.79197L16.3698 9.70164L15.1066 9.76186L14.084 9.97263L13.0012 10.3038L12.0388 10.7254L11.1365 11.2673L10.4146 11.8394Z" fill="black" stroke="black"/>
<path d="M8.27857 14.4288L3.34599 10.635L2.8046 11.448L2.2933 12.4717L1.81207 13.7664L1.391 15.0912L1.06015 17.0182L1 18.5237L1.06015 19.969L1.21054 21.2938L1.45115 22.5584L1.93238 24.0036L2.50384 25.3887L3.22568 26.7135L4.00767 27.9179L4.60921 28.7007L5.33105 29.4233L6.32358 30.3567L7.37627 31.1697L8.21842 31.7418L9.18088 32.2536L10.7148 32.9763L12.0081 33.3677L13.2713 33.6989L14.3842 33.8795L15.497 34H16.9106H18.1437L19.6476 33.8193L20.5499 33.6086L21.2717 33.3978L22.2643 33.0967L23.4072 32.5848L24.2192 32.1934L24.9411 31.7719L25.5426 31.3804L26.5652 30.5675L27.0765 30.0556L27.4074 29.7545L27.6781 29.4233L28.039 29.0921L28.3698 28.7007L28.6706 28.3093L28.9112 27.8576L23.6779 24.2445L23.4974 24.4553L22.8959 25.1478L22.3846 25.6898L21.783 26.1715L20.8807 26.8038L19.5574 27.406L18.234 27.8275L17.2114 27.948L16.1587 28.0082L14.8654 27.9179L14.3541 27.8275L13.5721 27.6168L12.9705 27.406L12.2487 27.1049L11.7374 26.8038L10.9253 26.2919L9.99295 25.479L9.30118 24.666L8.48911 23.552L7.88758 22.4078L7.37627 20.9927L7.19581 19.3969L7.28604 17.8312L7.37627 17.1387L7.67704 16.0246L8.27857 14.4288Z" fill="black" stroke="black"/>
<ellipse cx="16.2784" cy="18.885" rx="1.92491" ry="1.92701" fill="#1888E6"/>
<path d="M34.8359 14.3085V4.94442L59.1981 4.91431V12.1105H42.9867L46.6561 15.8441H59.1981V23.1305H43.6484L34.8359 14.3085Z" fill="black"/>
<path d="M42.1446 24.636L34.9262 17.5001V33.9399L58.2056 33.9687L59.1981 33.97V26.6534H59.0778H42.1446V24.636Z" fill="black"/>
<path d="M34.8359 14.3085V4.94442L59.1981 4.91431V12.1105H42.9867L46.6561 15.8441H59.1981V23.1305H43.6484L34.8359 14.3085Z" stroke="black"/>
<path d="M42.1446 24.636L34.9262 17.5001V33.9399L58.2056 33.9687L59.1981 33.97V26.6534H59.0778H42.1446V24.636Z" stroke="black"/>
<path d="M87.8018 14.3085V4.94442L112.164 4.91431V12.1105H95.9526L99.6219 15.8441H112.164V23.1305H96.6142L87.8018 14.3085Z" fill="black"/>
<path d="M95.1104 24.636L87.892 17.5001V33.9399L111.171 33.9687L112.164 33.97V26.6534H112.044H95.1104V24.636Z" fill="black"/>
<path d="M87.8018 14.3085V4.94442L112.164 4.91431V12.1105H95.9526L99.6219 15.8441H112.164V23.1305H96.6142L87.8018 14.3085Z" stroke="black"/>
<path d="M95.1104 24.636L87.892 17.5001V33.9399L111.171 33.9687L112.164 33.97V26.6534H112.044H95.1104V24.636Z" stroke="black"/>
<path d="M70.6586 4.854H63.4102L63.4703 33.9097H78.9898L71.7113 26.7135H70.6586V4.854Z" fill="black"/>
<path d="M83.6517 26.7436H74.9896L82.2381 33.9699H83.6517V26.7436Z" fill="black"/>
<path d="M70.6586 4.854H63.4102L63.4703 33.9097H78.9898L71.7113 26.7135H70.6586V4.854Z" stroke="black"/>
<path d="M83.6517 26.7436H74.9896L82.2381 33.9699H83.6517V26.7436Z" stroke="black"/>
<path fill-rule="evenodd" clip-rule="evenodd" d="M134.691 33.97C138.437 33.96 145.903 33.9461 145.999 33.9695L146 33.97L146 33.97L146 33.9697L145.999 33.9695C145.904 33.8989 138.617 26.6697 134.962 23.0402H136.225L136.947 22.9499L137.368 22.8596L137.699 22.7692L138.09 22.6488L138.391 22.5284L138.812 22.3477L139.233 22.1369L139.594 21.9262L140.105 21.6251L140.526 21.324L140.947 21.0229L141.338 20.7218L141.639 20.4207L141.85 20.2099L142.06 19.9088L142.361 19.5174L142.662 19.0959L142.872 18.7948L143.083 18.4937L143.173 18.3431L143.263 18.1324L143.384 17.8614L143.474 17.5904L143.684 17.0183L143.895 16.386L143.985 15.8441L144.075 15.2419L144.196 14.1278V13.4353L144.135 12.261L143.865 11.0566L143.564 10.2738L143.263 9.55117L142.962 9.03931L142.571 8.43712L142.15 7.92526L141.85 7.53383L141.429 7.1123L140.947 6.72088L140.647 6.51011L140.135 6.17891L139.624 5.87781L138.992 5.57672L138.481 5.39606L137.94 5.2154L137.669 5.15518L137.398 5.09496L136.887 5.00464L136.075 4.91431H116.314V15.5128L134.691 33.97ZM116.435 33.8796H123.636V25.9006L116.435 18.7647V33.8796ZM124.135 12.4417L127.443 15.9043H134.33L135.263 15.6634L135.955 15.2419L136.466 14.7902L136.676 14.1278L136.767 13.3149V12.8933L136.676 12.6826L136.586 12.4417H124.135Z" fill="black"/>
<path d="M134.691 33.97L134.337 34.3227L134.484 34.4705L134.693 34.47L134.691 33.97ZM146 33.97L145.751 34.4032L146.166 34.6427L146.423 34.2375L146 33.97ZM146 33.97L146.423 34.2375L146.647 33.8837L146.338 33.6011L146 33.97ZM146 33.9697L146.337 33.6008L146.257 33.5273L146.154 33.4939L146 33.9697ZM134.962 23.0402V22.5402H133.749L134.61 23.395L134.962 23.0402ZM136.225 23.0402V23.5402H136.256L136.287 23.5363L136.225 23.0402ZM136.947 22.9499L137.009 23.446L137.031 23.4433L137.052 23.4388L136.947 22.9499ZM137.368 22.8596L137.473 23.3484L137.487 23.3455L137.5 23.3419L137.368 22.8596ZM137.699 22.7692L137.831 23.2516L137.839 23.2495L137.846 23.2471L137.699 22.7692ZM138.09 22.6488L138.237 23.1266L138.257 23.1206L138.276 23.113L138.09 22.6488ZM138.391 22.5284L138.577 22.9927L138.588 22.9879L138.391 22.5284ZM138.812 22.3477L139.009 22.8072L139.023 22.8014L139.036 22.7948L138.812 22.3477ZM139.233 22.1369L139.457 22.5841L139.471 22.5768L139.485 22.5687L139.233 22.1369ZM139.594 21.9262L139.846 22.3579L139.848 22.357L139.594 21.9262ZM140.105 21.6251L140.359 22.0559L140.378 22.0447L140.396 22.0318L140.105 21.6251ZM140.526 21.324L140.235 20.9173H140.235L140.526 21.324ZM140.947 21.0229L141.238 21.4296L141.245 21.4244L141.252 21.419L140.947 21.0229ZM141.338 20.7218L141.643 21.1179L141.669 21.0981L141.692 21.0751L141.338 20.7218ZM141.639 20.4207L141.285 20.0673H141.285L141.639 20.4207ZM141.85 20.2099L142.203 20.5633L142.234 20.5323L142.259 20.4964L141.85 20.2099ZM142.06 19.9088L141.664 19.6042L141.657 19.6131L141.65 19.6223L142.06 19.9088ZM142.361 19.5174L142.757 19.8221L142.763 19.815L142.768 19.8078L142.361 19.5174ZM142.662 19.0959L143.069 19.3863L143.071 19.3824L142.662 19.0959ZM142.872 18.7948L143.282 19.0813H143.282L142.872 18.7948ZM143.083 18.4937L143.493 18.7802L143.503 18.7658L143.512 18.7507L143.083 18.4937ZM143.173 18.3431L143.602 18.6002L143.619 18.5711L143.633 18.5399L143.173 18.3431ZM143.263 18.1324L142.806 17.9295L142.804 17.9356L143.263 18.1324ZM143.384 17.8614L143.841 18.0643L143.85 18.0422L143.858 18.0193L143.384 17.8614ZM143.474 17.5904L143.005 17.4177L143.002 17.425L142.999 17.4324L143.474 17.5904ZM143.684 17.0183L144.154 17.191L144.156 17.1837L144.159 17.1763L143.684 17.0183ZM143.895 16.386L144.369 16.544L144.382 16.5068L144.388 16.4681L143.895 16.386ZM143.985 15.8441L144.478 15.9262L144.48 15.9181L143.985 15.8441ZM144.075 15.2419L144.57 15.316L144.571 15.3058L144.572 15.2955L144.075 15.2419ZM144.196 14.1278L144.693 14.1815L144.696 14.1547V14.1278H144.196ZM144.196 13.4353H144.696V13.4225L144.695 13.4097L144.196 13.4353ZM144.135 12.261L144.635 12.2354L144.633 12.1929L144.623 12.1514L144.135 12.261ZM143.865 11.0566L144.353 10.947L144.345 10.9114L144.331 10.8773L143.865 11.0566ZM143.564 10.2738L144.031 10.0944L144.026 10.0817L143.564 10.2738ZM143.263 9.55117L143.725 9.35904L143.712 9.3274L143.694 9.29786L143.263 9.55117ZM142.962 9.03931L143.394 8.786L143.388 8.77638L143.382 8.76702L142.962 9.03931ZM142.571 8.43712L142.991 8.16483L142.975 8.14121L142.958 8.11947L142.571 8.43712ZM142.15 7.92526L141.754 8.2299L141.759 8.23649L141.764 8.2429L142.15 7.92526ZM141.85 7.53383L142.246 7.22918L142.226 7.20344L142.203 7.18047L141.85 7.53383ZM141.429 7.1123L141.782 6.75894L141.764 6.74069L141.744 6.72441L141.429 7.1123ZM140.947 6.72088L141.263 6.33299L141.249 6.32169L141.234 6.31141L140.947 6.72088ZM140.647 6.51011L140.933 6.10064L140.926 6.09541L140.918 6.09046L140.647 6.51011ZM140.135 6.17891L140.407 5.75925L140.398 5.75346L140.389 5.74806L140.135 6.17891ZM139.624 5.87781L139.878 5.44696L139.859 5.43587L139.839 5.42647L139.624 5.87781ZM138.992 5.57672L139.207 5.12538L139.184 5.11405L139.159 5.10528L138.992 5.57672ZM138.481 5.39606L138.648 4.92455L138.639 4.92177L138.481 5.39606ZM137.94 5.2154L138.098 4.74111L138.073 4.73294L138.048 4.72733L137.94 5.2154ZM137.669 5.15518L137.778 4.66711V4.66711L137.669 5.15518ZM137.398 5.09496L137.507 4.6069L137.496 4.6045L137.485 4.60259L137.398 5.09496ZM136.887 5.00464L136.974 4.51226L136.958 4.50947L136.942 4.5077L136.887 5.00464ZM136.075 4.91431L136.13 4.41737L136.103 4.41431H136.075V4.91431ZM116.314 4.91431V4.41431H115.814V4.91431H116.314ZM116.314 15.5128H115.814V15.7193L115.96 15.8656L116.314 15.5128ZM123.636 33.8796V34.3796H124.136V33.8796H123.636ZM116.435 33.8796H115.935V34.3796H116.435V33.8796ZM123.636 25.9006H124.136V25.6922L123.988 25.5454L123.636 25.9006ZM116.435 18.7647L116.787 18.4095L115.935 17.5654V18.7647H116.435ZM127.443 15.9043L127.081 16.2497L127.229 16.4043H127.443V15.9043ZM124.135 12.4417V11.9417H122.965L123.773 12.7871L124.135 12.4417ZM134.33 15.9043V16.4043H134.394L134.456 16.3884L134.33 15.9043ZM135.263 15.6634L135.388 16.1475L135.46 16.129L135.523 16.0904L135.263 15.6634ZM135.955 15.2419L136.215 15.6688L136.252 15.6458L136.286 15.6166L135.955 15.2419ZM136.466 14.7902L136.797 15.165L136.901 15.0734L136.942 14.9417L136.466 14.7902ZM136.676 14.1278L137.153 14.2793L137.168 14.2321L137.173 14.183L136.676 14.1278ZM136.767 13.3149L137.264 13.37L137.267 13.3425V13.3149H136.767ZM136.767 12.8933H137.267V12.7908L137.226 12.6965L136.767 12.8933ZM136.676 12.6826L136.208 12.8579L136.212 12.8687L136.217 12.8793L136.676 12.6826ZM136.586 12.4417L137.054 12.2663L136.933 11.9417H136.586V12.4417ZM146.118 33.4837C146.083 33.4753 146.054 33.4724 146.05 33.4719C146.039 33.4707 146.03 33.47 146.024 33.4696C146.011 33.4688 145.999 33.4682 145.988 33.4678C145.966 33.4669 145.939 33.4662 145.907 33.4656C145.844 33.4644 145.754 33.4633 145.644 33.4624C145.421 33.4605 145.106 33.4592 144.72 33.4583C143.947 33.4564 142.887 33.4563 141.713 33.4572C139.366 33.459 136.563 33.465 134.69 33.47L134.693 34.47C136.565 34.465 139.368 34.459 141.714 34.4572C142.887 34.4563 143.946 34.4564 144.717 34.4583C145.103 34.4592 145.416 34.4605 145.635 34.4624C145.745 34.4633 145.83 34.4643 145.888 34.4654C145.917 34.466 145.937 34.4666 145.95 34.467C145.956 34.4673 145.957 34.4674 145.955 34.4672C145.954 34.4672 145.949 34.4668 145.942 34.466C145.94 34.4659 145.914 34.4634 145.881 34.4553L146.118 33.4837ZM146.25 33.5368L146.249 33.5363L145.75 34.4027L145.751 34.4032L146.25 33.5368ZM145.578 33.7024L145.578 33.7025L146.423 34.2375L146.423 34.2375L145.578 33.7024ZM145.662 34.3386L145.663 34.3389L146.338 33.6011L146.337 33.6008L145.662 34.3386ZM145.846 34.4453L145.846 34.4455L146.154 33.4939L146.153 33.4937L145.846 34.4453ZM134.61 23.395C136.438 25.2098 139.173 27.9246 141.464 30.1946C142.609 31.3295 143.643 32.3535 144.397 33.0981C144.774 33.4704 145.081 33.7732 145.297 33.9853C145.405 34.0912 145.491 34.1751 145.552 34.2338C145.582 34.2631 145.607 34.287 145.625 34.3046C145.627 34.3067 145.667 34.3454 145.701 34.3708L146.298 33.5682C146.326 33.5892 146.345 33.6095 146.314 33.5798C146.299 33.5658 146.277 33.5446 146.248 33.5162C146.19 33.4595 146.105 33.3772 145.998 33.2717C145.783 33.0607 145.477 32.7588 145.1 32.3867C144.347 31.6426 143.313 30.6191 142.168 29.4843C139.877 27.2146 137.142 24.5001 135.314 22.6854L134.61 23.395ZM136.225 22.5402H134.962V23.5402H136.225V22.5402ZM136.885 22.4538L136.163 22.5441L136.287 23.5363L137.009 23.446L136.885 22.4538ZM137.263 22.3707L136.842 22.461L137.052 23.4388L137.473 23.3484L137.263 22.3707ZM137.567 22.2869L137.236 22.3772L137.5 23.3419L137.831 23.2516L137.567 22.2869ZM137.943 22.1709L137.552 22.2914L137.846 23.2471L138.237 23.1266L137.943 22.1709ZM138.205 22.0642L137.904 22.1846L138.276 23.113L138.577 22.9925L138.205 22.0642ZM138.615 21.8882L138.194 22.0689L138.588 22.9879L139.009 22.8072L138.615 21.8882ZM139.009 21.6898L138.588 21.9006L139.036 22.7948L139.457 22.5841L139.009 21.6898ZM139.342 21.4944L138.981 21.7052L139.485 22.5687L139.846 22.3579L139.342 21.4944ZM139.851 21.1942L139.34 21.4953L139.848 22.357L140.359 22.0559L139.851 21.1942ZM140.235 20.9173L139.814 21.2184L140.396 22.0318L140.817 21.7307L140.235 20.9173ZM140.656 20.6162L140.235 20.9173L140.817 21.7307L141.238 21.4296L140.656 20.6162ZM141.033 20.3256L140.642 20.6267L141.252 21.419L141.643 21.1179L141.033 20.3256ZM141.285 20.0673L140.985 20.3684L141.692 21.0751L141.993 20.7741L141.285 20.0673ZM141.496 19.8566L141.285 20.0673L141.993 20.7741L142.203 20.5633L141.496 19.8566ZM141.65 19.6223L141.44 19.9234L142.259 20.4964L142.47 20.1954L141.65 19.6223ZM141.964 19.2128L141.664 19.6042L142.457 20.2135L142.757 19.8221L141.964 19.2128ZM142.255 18.8055L141.954 19.227L142.768 19.8078L143.069 19.3863L142.255 18.8055ZM142.462 18.5083L142.252 18.8094L143.071 19.3824L143.282 19.0813L142.462 18.5083ZM142.673 18.2072L142.462 18.5083L143.282 19.0813L143.493 18.7802L142.673 18.2072ZM142.744 18.0861L142.654 18.2366L143.512 18.7507L143.602 18.6002L142.744 18.0861ZM142.804 17.9356L142.713 18.1464L143.633 18.5399L143.723 18.3291L142.804 17.9356ZM142.927 17.6585L142.806 17.9295L143.72 18.3353L143.841 18.0643L142.927 17.6585ZM142.999 17.4324L142.909 17.7034L143.858 18.0193L143.948 17.7484L142.999 17.4324ZM143.215 16.8456L143.005 17.4177L143.943 17.7631L144.154 17.191L143.215 16.8456ZM143.42 16.2281L143.21 16.8604L144.159 17.1763L144.369 16.544L143.42 16.2281ZM143.492 15.7619L143.402 16.3039L144.388 16.4681L144.478 15.9262L143.492 15.7619ZM143.581 15.1678L143.491 15.77L144.48 15.9181L144.57 15.316L143.581 15.1678ZM143.698 14.0741L143.578 15.1882L144.572 15.2955L144.693 14.1815L143.698 14.0741ZM143.696 13.4353V14.1278H144.696V13.4353H143.696ZM143.636 12.2866L143.696 13.4609L144.695 13.4097L144.635 12.2354L143.636 12.2866ZM143.377 11.1663L143.648 12.3707L144.623 12.1514L144.353 10.947L143.377 11.1663ZM143.097 10.4531L143.398 11.236L144.331 10.8773L144.031 10.0945L143.097 10.4531ZM142.802 9.7433L143.102 10.4659L144.026 10.0817L143.725 9.35904L142.802 9.7433ZM142.531 9.29261L142.832 9.80447L143.694 9.29786L143.394 8.786L142.531 9.29261ZM142.152 8.7094L142.543 9.31159L143.382 8.76702L142.991 8.16483L142.152 8.7094ZM141.764 8.2429L142.185 8.75476L142.958 8.11947L142.537 7.60761L141.764 8.2429ZM141.453 7.83848L141.754 8.2299L142.547 7.62061L142.246 7.22918L141.453 7.83848ZM141.075 7.46566L141.496 7.88719L142.203 7.18047L141.782 6.75894L141.075 7.46566ZM140.632 7.10876L141.113 7.50019L141.744 6.72441L141.263 6.33299L140.632 7.10876ZM140.36 6.91958L140.66 7.13035L141.234 6.31141L140.933 6.10064L140.36 6.91958ZM139.863 6.59856L140.375 6.92976L140.918 6.09046L140.407 5.75925L139.863 6.59856ZM139.37 6.30866L139.882 6.60975L140.389 5.74806L139.878 5.44696L139.37 6.30866ZM138.777 6.02805L139.409 6.32915L139.839 5.42647L139.207 5.12538L138.777 6.02805ZM138.314 5.8675L138.826 6.04815L139.159 5.10528L138.648 4.92462L138.314 5.8675ZM137.781 5.68969L138.323 5.87035L138.639 4.92177L138.098 4.74111L137.781 5.68969ZM137.56 5.64325L137.831 5.70347L138.048 4.72733L137.778 4.66711L137.56 5.64325ZM137.29 5.58303L137.56 5.64325L137.778 4.66711L137.507 4.6069L137.29 5.58303ZM136.8 5.49701L137.311 5.58734L137.485 4.60259L136.974 4.51226L136.8 5.49701ZM136.02 5.41124L136.832 5.50157L136.942 4.5077L136.13 4.41737L136.02 5.41124ZM116.314 5.41431H136.075V4.41431H116.314V5.41431ZM116.814 15.5128V4.91431H115.814V15.5128H116.814ZM135.046 33.6172L116.669 15.1601L115.96 15.8656L134.337 34.3227L135.046 33.6172ZM123.636 33.3796H116.435V34.3796H123.636V33.3796ZM123.136 25.9006V33.8796H124.136V25.9006H123.136ZM116.083 19.1198L123.285 26.2558L123.988 25.5454L116.787 18.4095L116.083 19.1198ZM116.935 33.8796V18.7647H115.935V33.8796H116.935ZM127.804 15.5589L124.496 12.0963L123.773 12.7871L127.081 16.2497L127.804 15.5589ZM134.33 15.4043H127.443V16.4043H134.33V15.4043ZM135.138 15.1793L134.205 15.4202L134.456 16.3884L135.388 16.1475L135.138 15.1793ZM135.694 14.8149L135.003 15.2364L135.523 16.0904L136.215 15.6688L135.694 14.8149ZM136.135 14.4155L135.624 14.8671L136.286 15.6166L136.797 15.165L136.135 14.4155ZM136.2 13.9764L135.989 14.6388L136.942 14.9417L137.153 14.2793L136.2 13.9764ZM136.27 13.2597L136.179 14.0727L137.173 14.183L137.264 13.37L136.27 13.2597ZM136.267 12.8933V13.3149H137.267V12.8933H136.267ZM136.217 12.8793L136.307 13.0901L137.226 12.6965L137.136 12.4858L136.217 12.8793ZM136.118 12.6171L136.208 12.8579L137.145 12.5072L137.054 12.2663L136.118 12.6171ZM124.135 12.9417H136.586V11.9417H124.135V12.9417Z" fill="black"/>
</svg>
