<svg width="31" height="33" viewBox="0 0 31 33" fill="none" xmlns="http://www.w3.org/2000/svg">
<path d="M2.33648 6.93994L2.0459 7.22279L14.5118 16.8961L14.8024 16.5284L2.33648 6.93994Z" fill="#1888E6"/>
<path d="M29.9998 17.6033L17.5629 17.575V17.971H29.9998V17.6033Z" fill="#1888E6"/>
<path d="M2.33648 6.93994L2.0459 7.22279L14.5118 16.8961L14.8024 16.5284L2.33648 6.93994Z" stroke="#1888E6"/>
<path d="M29.9998 17.6033L17.5629 17.575V17.971H29.9998V17.6033Z" stroke="#1888E6"/>
<path d="M10.7636 11.6634L10.473 11.4371L10.4149 11.3805L10.5021 11.2957L10.9089 11.0128L11.3738 10.73L12.0712 10.334L12.7686 10.0512L13.3498 9.88144L13.7275 9.76831L14.2215 9.68345L14.9189 9.57031H15.8488H16.6624L17.3598 9.68345L18.1444 9.85316L18.6965 10.0512L19.2195 10.2491L19.8007 10.532L20.469 10.928L21.0792 11.3805L21.5732 11.7482L21.8638 12.0594L22.1544 12.3988L22.5031 12.8796L22.1544 13.1059L21.951 12.8796L21.5732 12.4836L21.1664 12.0594L20.7015 11.6634L20.1784 11.2957L19.481 10.8997L18.6383 10.5603L17.7085 10.2577L16.7786 10.0597L16.0812 10.0512H15.0642L14.2506 10.136L13.2045 10.4189L12.2165 10.7866L11.49 11.2108L10.7636 11.6634Z" fill="#1888E6"/>
<path d="M8.70045 14.1524L8.35176 13.8696L8.14835 14.2656L7.94494 14.7181L7.65436 15.4818L7.45095 16.3303L7.33472 16.9809L7.30566 17.6597L7.33472 18.3386L7.36378 18.7628L7.4219 19.1871L7.56719 19.6679L7.65436 20.0356L7.74154 20.375L7.94494 20.9407L8.14835 21.3084L8.43893 21.9024L8.72951 22.3833L8.93292 22.6661L9.39785 23.2318L10.2987 24.0803L11.0542 24.646L11.7516 25.042L12.8267 25.5229L14.3959 25.8906L15.7325 25.9754L17.1564 25.8906L17.9409 25.7774L18.6093 25.5229L19.3067 25.24L20.0912 24.844L20.5562 24.5329L21.0502 24.1652L21.5732 23.7126L21.8638 23.4298L22.2415 23.0338L22.5321 22.6378L22.2415 22.4115L21.951 22.751L21.486 23.2318L20.963 23.7126L20.2947 24.1652L19.5101 24.646L18.4349 25.1269L17.8247 25.3249L17.3598 25.438L16.7496 25.5229L15.7906 25.6077L14.7736 25.5229L14.1343 25.438L13.1173 25.1269L11.955 24.646L11.3738 24.2783L10.6764 23.7975L10.0952 23.2318L9.60126 22.751L9.02009 21.9024L8.61328 21.2236L8.23552 20.375L7.94494 19.4134L7.82871 18.8477L7.77059 18.3386L7.74154 17.8011L7.82871 16.7263L7.94494 16.1606L8.14835 15.4818L8.40987 14.7181L8.70045 14.1524Z" fill="#1888E6"/>
<path d="M10.7636 11.6634L10.473 11.4371L10.4149 11.3805L10.5021 11.2957L10.9089 11.0128L11.3738 10.73L12.0712 10.334L12.7686 10.0512L13.3498 9.88144L13.7275 9.76831L14.2215 9.68345L14.9189 9.57031H15.8488H16.6624L17.3598 9.68345L18.1444 9.85316L18.6965 10.0512L19.2195 10.2491L19.8007 10.532L20.469 10.928L21.0792 11.3805L21.5732 11.7482L21.8638 12.0594L22.1544 12.3988L22.5031 12.8796L22.1544 13.1059L21.951 12.8796L21.5732 12.4836L21.1664 12.0594L20.7015 11.6634L20.1784 11.2957L19.481 10.8997L18.6383 10.5603L17.7085 10.2577L16.7786 10.0597L16.0812 10.0512H15.0642L14.2506 10.136L13.2045 10.4189L12.2165 10.7866L11.49 11.2108L10.7636 11.6634Z" stroke="#1888E6"/>
<path d="M8.70045 14.1524L8.35176 13.8696L8.14835 14.2656L7.94494 14.7181L7.65436 15.4818L7.45095 16.3303L7.33472 16.9809L7.30566 17.6597L7.33472 18.3386L7.36378 18.7628L7.4219 19.1871L7.56719 19.6679L7.65436 20.0356L7.74154 20.375L7.94494 20.9407L8.14835 21.3084L8.43893 21.9024L8.72951 22.3833L8.93292 22.6661L9.39785 23.2318L10.2987 24.0803L11.0542 24.646L11.7516 25.042L12.8267 25.5229L14.3959 25.8906L15.7325 25.9754L17.1564 25.8906L17.9409 25.7774L18.6093 25.5229L19.3067 25.24L20.0912 24.844L20.5562 24.5329L21.0502 24.1652L21.5732 23.7126L21.8638 23.4298L22.2415 23.0338L22.5321 22.6378L22.2415 22.4115L21.951 22.751L21.486 23.2318L20.963 23.7126L20.2947 24.1652L19.5101 24.646L18.4349 25.1269L17.8247 25.3249L17.3598 25.438L16.7496 25.5229L15.7906 25.6077L14.7736 25.5229L14.1343 25.438L13.1173 25.1269L11.955 24.646L11.3738 24.2783L10.6764 23.7975L10.0952 23.2318L9.60126 22.751L9.02009 21.9024L8.61328 21.2236L8.23552 20.375L7.94494 19.4134L7.82871 18.8477L7.77059 18.3386L7.74154 17.8011L7.82871 16.7263L7.94494 16.1606L8.14835 15.4818L8.40987 14.7181L8.70045 14.1524Z" stroke="#1888E6"/>
<path d="M10.0951 11.1825L5.35866 7.61861L5.96888 7.0812L6.66627 6.5438L7.39273 6.11953L6.75345 5.35584L5.73641 6.06296L5.27148 5.46898L8.40976 3.17792L8.90375 3.82847L7.85765 4.62044L8.58411 5.46898L9.39773 5.04471L10.3276 4.70529L11.3737 4.36588L12.4488 4.1396L13.4078 3.96989L14.3376 3.94161V2.58394H12.8556V1H18.6963V2.58394H17.2725L17.3015 3.96989L18.3186 4.05474L19.3356 4.33759L20.3526 4.59215L21.2825 4.95985L22.2124 5.38412L23.055 5.86496L23.8396 6.31752L24.5079 6.82664L25.4378 7.59033L26.1933 8.35401L26.8326 9.03285L27.3266 9.76825L22.8807 12.6533L21.6602 11.3805L20.7013 10.6451L19.539 9.96624L18.522 9.59854L17.2725 9.25912L15.8486 9.17427L14.6282 9.23084L13.6402 9.42883L12.5941 9.73996L11.6643 10.1359L10.7925 10.6451L10.0951 11.1825Z" fill="white" stroke="white"/>
<path d="M8.03206 13.6151L3.26653 10.0513L2.74349 10.815L2.2495 11.7766L1.78457 12.9929L1.37776 14.2374L1.05812 16.0476L1 17.4619L1.05812 18.8195L1.20341 20.0641L1.43587 21.252L1.9008 22.6097L2.45291 23.9108L3.1503 25.1553L3.90581 26.2867L4.48697 27.0221L5.18437 27.7009L6.14329 28.5778L7.16032 29.3414L7.97395 29.8789L8.90381 30.3597L10.3858 31.0385L11.6353 31.4062L12.8557 31.7174L13.9309 31.8871L15.006 32.0002H16.3717H17.5631L19.016 31.8305L19.8878 31.6325L20.5852 31.4345L21.5441 31.1517L22.6483 30.6708L23.4329 30.3031L24.1303 29.9071L24.7114 29.5394L25.6994 28.7757L26.1934 28.2949L26.513 28.0121L26.7745 27.7009L27.1232 27.3898L27.4429 27.0221L27.7335 26.6544L27.9659 26.2301L22.9098 22.836L22.7355 23.034L22.1543 23.6845L21.6603 24.1936L21.0792 24.6462L20.2074 25.2402L18.9289 25.8059L17.6503 26.2018L16.6623 26.315L15.6453 26.3715L14.3958 26.2867L13.9018 26.2018L13.1463 26.0038L12.5651 25.8059L11.8677 25.523L11.3737 25.2402L10.5892 24.7593L9.68838 23.9956L9.02004 23.2319L8.23547 22.1854L7.65431 21.1106L7.16032 19.7812L6.98597 18.2821L7.07315 16.8113L7.16032 16.1608L7.4509 15.1142L8.03206 13.6151Z" fill="white" stroke="white"/>
<ellipse cx="15.7611" cy="17.8009" rx="1.85972" ry="1.81021" fill="#1888E6"/>
</svg>
